<?xml version="1.0" encoding="utf-8"?>
<!-- Generator: Adobe Illustrator 28.2.0, SVG Export Plug-In . SVG Version: 6.00 Build 0)  -->
<svg version="1.1" id="Layer_1" xmlns="http://www.w3.org/2000/svg" xmlns:xlink="http://www.w3.org/1999/xlink" x="0px" y="0px"
	 viewBox="0 0 2000 800" style="enable-background:new 0 0 2000 800;" xml:space="preserve">
<style type="text/css">
	.st0{fill:#FF0013;}
	.st1{fill:#03930A;}
	.st2{fill-rule:evenodd;clip-rule:evenodd;fill:#FF0013;}
	.st3{fill:#006838;}
</style>
<g>
	<g>
		<g>
			<path class="st0" d="M879.46,550.79h-30.84v-22.58h86.77v22.58h-30.69v78.8h-25.23V550.79z"/>
			<path class="st0" d="M997.8,551.53v20.81c-15.49,0-24.94,8.85-24.94,22.87l-0.15-0.29v34.68h-24.94V553.3h24.94v14.17
				C977.73,557.58,986.73,551.53,997.8,551.53z"/>
			<path class="st0" d="M1078.81,584.29v45.3h-24.05v-6.49c-5.31,5.31-13.28,8.26-21.1,8.26c-16.23,0-29.07-9.89-29.07-24.35
				c0-14.9,14.31-25.38,32.32-25.38c5.61,0,11.95,1.33,17.86,3.69v-1.03c0-8.12-6.2-14.02-16.67-14.02
				c-7.23,0-12.69,2.21-19.18,5.61l-7.82-15.64c10.62-5.31,21.54-8.71,33.35-8.71C1064.05,551.53,1078.81,563.93,1078.81,584.29z
				 M1054.76,606.72v-8.12c-3.84-1.48-9.15-2.51-14.31-2.51c-6.79,0-12.1,4.28-12.1,10.18c0,5.9,4.72,9.74,11.36,9.74
				C1047.08,616.02,1053.72,612.48,1054.76,606.72z"/>
			<path class="st0" d="M1170.3,581.05v48.55h-23.9v-42.94c0-8.41-5.31-14.31-12.99-14.31c-7.67,0-13.43,5.75-13.43,13.28
				l-0.15-0.44v44.42h-24.94V553.3h24.94v8.71c4.72-6.49,12.84-10.48,22.43-10.48C1158.64,551.53,1170.3,563.78,1170.3,581.05z"/>
			<path class="st0" d="M1180.92,619.85l10.03-16.08c7.08,5.02,16.82,8.71,25.97,8.71c5.46,0,8.56-1.77,8.56-4.72
				c0-3.69-5.02-5.17-12.54-6.94c-14.76-3.39-28.48-7.23-28.63-23.76c0-14.61,11.95-25.53,30.84-25.53
				c11.36,0,22.43,3.98,30.99,9.74l-9.15,16.38c-6.64-4.28-14.9-7.53-21.84-7.53c-4.57,0-7.82,2.07-7.82,4.43
				c0,3.39,3.25,4.13,12.25,6.49c13.58,3.25,28.77,7.67,28.77,25.09c0,15.35-12.4,25.23-32.02,25.23
				C1203.49,631.36,1190.21,627.08,1180.92,619.85z"/>
			<path class="st0" d="M1346.04,591.37c0,23.46-14.46,39.99-34.97,39.99c-10.18,0-18.89-4.28-24.94-11.51v35.12h-25.09V553.3h25.09
				v9.74c6.05-7.23,14.76-11.51,24.94-11.51C1331.58,551.53,1346.04,568.06,1346.04,591.37z M1321.98,591.37
				c0-11.07-7.67-19.04-18.45-19.04c-10.33,0-17.41,7.97-17.41,19.04c0,11.21,7.08,19.18,17.41,19.18
				C1314.31,610.56,1321.98,602.59,1321.98,591.37z"/>
			<path class="st0" d="M1355.63,591.37c0-21.69,19.33-39.84,42.35-39.84c23.02,0,42.35,18.15,42.35,39.84
				c0,21.69-19.33,39.99-42.35,39.99C1374.96,631.36,1355.63,613.07,1355.63,591.37z M1416.72,591.37
				c0-10.33-8.56-19.04-18.74-19.04c-10.18,0-18.74,8.71-18.74,19.04c0,10.33,8.56,19.18,18.74,19.18
				C1408.16,610.56,1416.72,601.7,1416.72,591.37z"/>
			<path class="st0" d="M1503.18,551.53v20.81c-15.49,0-24.94,8.85-24.94,22.87l-0.15-0.29v34.68h-24.94V553.3h24.94v14.17
				C1483.12,557.58,1492.12,551.53,1503.18,551.53z"/>
			<path class="st0" d="M1562.06,624.13c-4.57,4.28-12.1,7.23-18.59,7.23c-14.31,0-24.35-10.18-24.35-24.5v-33.64h-10.03V553.3
				h10.03v-20.95h23.91v20.95h15.79v19.92h-15.79v29.07c0,4.87,2.95,8.26,6.93,8.26c2.8,0,5.61-1.03,7.08-2.51L1562.06,624.13z"/>
			<path class="st0" d="M1644.25,584.29v45.3h-24.05v-6.49c-5.31,5.31-13.28,8.26-21.1,8.26c-16.23,0-29.07-9.89-29.07-24.35
				c0-14.9,14.31-25.38,32.32-25.38c5.61,0,11.95,1.33,17.85,3.69v-1.03c0-8.12-6.2-14.02-16.67-14.02
				c-7.23,0-12.69,2.21-19.18,5.61l-7.82-15.64c10.62-5.31,21.54-8.71,33.35-8.71C1629.49,551.53,1644.25,563.93,1644.25,584.29z
				 M1620.2,606.72v-8.12c-3.84-1.48-9.15-2.51-14.31-2.51c-6.79,0-12.1,4.28-12.1,10.18c0,5.9,4.72,9.74,11.36,9.74
				C1612.52,616.02,1619.16,612.48,1620.2,606.72z"/>
			<path class="st0" d="M1708.29,624.13c-4.57,4.28-12.1,7.23-18.59,7.23c-14.31,0-24.35-10.18-24.35-24.5v-33.64h-10.03V553.3
				h10.03v-20.95h23.91v20.95h15.79v19.92h-15.79v29.07c0,4.87,2.95,8.26,6.93,8.26c2.8,0,5.61-1.03,7.08-2.51L1708.29,624.13z"/>
			<path class="st0" d="M1720.24,530.73c0-6.94,5.9-12.99,13.28-12.99c7.23,0,12.99,6.05,12.99,12.99c0,7.23-5.76,13.28-12.99,13.28
				C1726.14,544.01,1720.24,537.96,1720.24,530.73z M1720.83,553.3h24.94v76.29h-24.94V553.3z"/>
			<path class="st0" d="M1759.19,591.37c0-21.69,19.33-39.84,42.35-39.84c23.02,0,42.35,18.15,42.35,39.84
				c0,21.69-19.33,39.99-42.35,39.99C1778.53,631.36,1759.19,613.07,1759.19,591.37z M1820.29,591.37
				c0-10.33-8.56-19.04-18.74-19.04c-10.18,0-18.74,8.71-18.74,19.04c0,10.33,8.56,19.18,18.74,19.18
				C1811.73,610.56,1820.29,601.7,1820.29,591.37z"/>
			<path class="st0" d="M1931.99,581.05v48.55h-23.91v-42.94c0-8.41-5.31-14.31-12.99-14.31c-7.67,0-13.43,5.75-13.43,13.28
				l-0.15-0.44v44.42h-24.94V553.3h24.94v8.71c4.72-6.49,12.84-10.48,22.43-10.48C1920.33,551.53,1931.99,563.78,1931.99,581.05z"/>
		</g>
		<g>
			<g>
				<path class="st1" d="M1265.64,152.74h116.55c109.17,0,186.87,69.83,186.87,168.68c0,98.85-77.7,169.17-186.87,169.17h-116.55
					V152.74z M1385.14,445.34c78.19,0,132.78-51.14,132.78-123.93c0-72.29-54.59-123.44-132.78-123.44h-69.83v247.36H1385.14z"/>
				<path class="st1" d="M1847.4,421.74h-176.06l-29.51,68.85h-55.08l145.07-337.85h55.08l145.07,337.85h-55.08L1847.4,421.74z
					 M1828.22,376.99l-68.85-160.32l-68.85,160.32H1828.22z"/>
			</g>
			<g>
				<path class="st1" d="M1027.96,145.03c-97.2,0-179.34,78.74-179.34,172.54s82.14,173.02,179.34,173.02
					c97.69,0,179.83-79.22,179.83-173.02S1125.65,145.03,1027.96,145.03z M1028.2,453.38c-74.87,0-135.57-60.7-135.57-135.57
					s60.7-135.57,135.57-135.57c74.88,0,135.57,60.7,135.57,135.57S1103.08,453.38,1028.2,453.38z"/>
				<g>
					<path class="st2" d="M1028.2,195.62c33.74,0,64.29,13.68,86.4,35.79c22.11,22.11,35.79,52.66,35.79,86.4
						c0,33.74-13.68,64.29-35.79,86.4c-22.11,22.11-52.66,35.79-86.4,35.79c-33.74,0-64.29-13.68-86.4-35.79
						c-22.11-22.11-35.79-52.66-35.79-86.4c0-33.74,13.68-64.29,35.79-86.4C963.91,209.3,994.46,195.62,1028.2,195.62L1028.2,195.62
						z M1028.2,295.51c-12.31,0-22.3,9.98-22.3,22.29c0,12.32,9.98,22.3,22.3,22.3c12.31,0,22.29-9.98,22.29-22.3
						C1050.5,305.5,1040.52,295.51,1028.2,295.51L1028.2,295.51z M1080.49,289.74c-49.53-11.75-84.42-5.22-109.14,1.44
						c-0.85,0.44-1.61,1.21-2.25,2.27c-2.04,3.32-2.92,9.03-2.75,15.62c0.17,6.75,1.47,14.34,3.77,21.2
						c2.41,7.22,5.91,13.61,10.33,17.25c4.27,2.63,7.96,5.49,10.45,8.28c4.87,5.47,12.21,17.25,16.69,29.91h41.53
						c4.35-12.52,11.31-25.5,18.57-32.04c2.05-1.84,5.31-4.12,9.34-6.47c4.79-3.72,8.57-10.57,11.12-18.27
						c2.19-6.64,3.44-13.85,3.62-20.25c0.18-6.24-0.64-11.64-2.58-14.82c-0.76-1.25-1.69-2.11-2.78-2.48l0.01-0.02
						C1084.32,290.74,1082.33,290.18,1080.49,289.74L1080.49,289.74z M1088.47,338.1c3.01-4.75,5.18-14.11,6.09-19.66
						c0.94-5.73,2.14-16.5-0.19-21.63c8.86,2.8,17.46,2.51,25.25,2.58c7.81,0.08,8.14-1.19,8.28-8.76
						c-4.79-17.61-14.12-33.36-26.65-45.89c-18.7-18.7-44.53-30.26-73.06-30.26c-28.53,0-54.37,11.56-73.06,30.26
						c-12.62,12.62-21.99,28.5-26.75,46.27c0.16,7.9,1.56,8.83,9.73,8.33c7.05-0.44,14.92-0.81,26.03-3.97
						c-3.93,8.35-0.44,27.64,2.39,36.1c1.38,4.13,2.05,6.2,4.12,9.57c-7.13-3.29-40.05-13.23-43.61-2.06
						c4.17,20.04,14.15,37.95,28.09,51.89c13.08,13.07,29.64,22.66,48.18,27.24c2.03-0.09,4.01-0.39,5.93-0.93
						c3.51-7.77,4.81-17.84,1.83-27.7h34.52c-3.2,10.4-2.14,19.99,0.06,24.63c1.08,2.3,2.82,3.77,5.06,4.55
						c19.49-4.33,36.91-14.17,50.54-27.8c13-13,22.55-29.45,27.16-47.85c0.56-2.24,1.3-4.17,0.82-6.43
						C1118.89,330.52,1102.9,331.33,1088.47,338.1z"/>
				</g>
			</g>
		</g>
	</g>
	<g>
		<g>
			<path class="st3" d="M698.5,488.04c7.83,0,14.52,0,20.92,0c5.64-7.28,9.79-14.36,6.7-21.96c-2.81-3.99-5.62-7.98-8.22-11.67
				c-4.34,2.13-7.41,3.64-10.63,5.23c-1.51-3.2-2.67-5.66-3.7-7.84c-2.19,1.46-4.11,2.74-5.89,3.92c-4.36-3.31-8.05-6.12-11.49-8.73
				c-2.58,1.81-4.2,2.95-2.71,1.9c-4.08-1.2-6.37-1.87-7.28-2.14c8.01-4.61,15.21-8.75,24.44-14.06c-4.85-2.76-7.44-4.23-7.68-4.37
				c0.9-2.62,1.95-5.68,3.69-10.77c5.29,7.01,8.18,10.84,11.46,15.19c0.44-2.15,0.78-3.85,1.16-5.72c6.04-2.23,12.39-4.58,20.26-7.5
				c-3.09-3.91-5.21-6.58-7.28-9.2c-1.61,1.38-2.89,2.49-5.65,4.87c0-5.96,0-10.63,0-12.63c-8.44-8.6-14.87-15.14-22.05-22.46
				c-1.75,1.01-4.13,2.38-5.95,3.43c-11.41-6.75-24.38,0.04-35.51-4.3c0-1.93,0-3.16,0-4.38c7.36-5.6,13.52,0.56,20.43,2.41
				c4.67-7.84,10.71-3.55,16.25-1.16c0.56-2.55,0.93-4.25,1.39-6.34c2.68,1.32,5.05,2.49,7.21,3.56c2.12-1.36,3.86-2.48,4.66-2.99
				c3.08,1.45,5.16,2.43,7.02,3.3c1.9-1.76,3.24-3,4.6-4.25c4.24,4.2,7.82,9.94,15.38,6.87c9-14.96,7.17-26.15-11.92-36.37
				c-1.4,1.19-2.77,2.36-4.44,3.78c-6.67-2.89-13.26-5.75-23.95-10.38c6.1-3.17,9.19-4.77,12.28-6.38c-0.63-0.9-1.26-1.81-1.89-2.71
				c-6.08,2.71-12.16,5.41-18.71,8.33c-1.34-2.71-2.56-5.17-2.87-5.78c-5.78-2.71-10.08-4.73-14.38-6.75c0.26-1,0.53-2,0.79-3
				c5.87,0,11.74,0,17.49,0c0-4.25,0-7.17,0-9.93c-2.63-0.92-4.79-1.68-7.49-2.63c0-5.6,0-11.01,0-18.14
				c-4.18,1.85-7.15,3.17-11.31,5.01c-1.14-0.9-2.78-2.6-4.77-3.64c-1.85-0.97-4.06-1.22-7.78-2.25c3.95-5.02,6.82-8.66,9.97-12.66
				c-1.09-3.62-2.18-7.23-2.57-8.53c1.02-4.63,1.57-7.15,2.1-9.56c-7.68-2.32-11.95,0.01-15.04,5.44c-1.18,2.07-2.88,3.84-5.34,7.04
				c-1.88-8.07-3.27-14.02-4.47-19.15c1.18-2.66,2.11-4.77,2.89-6.53c-3.63-3.63-6.7-6.7-10.94-10.94
				c-9.27,1.38-19.63,2.92-29.97,4.46c-1.09-14.1-3.3-18.52-8.78-18.52c-1.81,1.1-3.62,2.19-5.36,3.25
				c-2.43-2.43-4.63-4.63-6.83-6.83c-1.59,2.71-3.14,5.35-5.9,10.05c-3.05-5.66-4.97-9.22-7.02-13.03c4.19-0.78,7.6-1.42,13.18-2.46
				c-6.46-5.55-4.67-14.73-13.38-17.1c-3.57,1.71-7.2,3.45-11.06,5.3c0,2.31,0,4.73,0,8.13c-9.7,3.48-9.52,17.27-22.24,21.35
				c1.45-12.04,2.76-22.83,4-33.12c-12.21-5.52-19.84,4.52-29.78,4.92c4.24-4.7,9.19-8.1,13.76-11.94c0.83-0.7,0.12-3.22,0.12-6.03
				c-2.66,1.71-4.39,2.82-5.29,3.4c-6.95-1.56-13.18-2.96-19.56-4.39c-0.23-0.77-0.21-2.31-0.95-2.91c-4.85-3.9-9.87-7.6-15.28-11.7
				c-6.4,9.16-16.87,5.83-24.95,9.46c-0.66,3.42-1.31,6.82-1.93,10.07c-1.96,0-3.19,0-4.58,0c-1.19-2.51-2.4-5.04-2.96-6.21
				c-8.61-1.62-16.07-3.03-24.17-4.55c-1.95,3.24-4.06,6.73-6.21,10.31c-2.59,0-5.52,0-8.1,0c-4.94-6.56-9.55-12.7-13.67-18.18
				c-6.99,0-13.48,1.76-17.92-0.5c-4.28-2.18-9.42,1.58-12.31-2.89c-3.95,2.25-7.88,4.49-11.27,6.41c-3.34-1.72-6.43-3.3-9.51-4.88
				c0-3.75,0-7.48,0-11.36c-4.07-2-8.19-4.02-12.23-6.01c-4.43,6.81-8.47,13.03-11.73,18.05c-8.44,1.57-15.87,2.95-23.08,4.29
				c-1.29-0.99-2.49-1.91-4.68-3.59c-0.98,6.26-10.12,6.65-6.92,15.59c4.33,0,8.94,0,13.53,0c-1.53,4.01-2.61,6.88-3.92,10.32
				c4.67,0.51,7.61,0.83,11.76,1.28c0,2.35-0.39,4.76,0.11,6.96c0.53,2.35,1.9,4.51,4.44,10.19c-9.57-5.66-15.99-9.46-23.32-13.8
				c-3.55,0-8.46,0-13.81,0c-2.97,14.9-15.89,13.26-26.89,15.94c1.67,11.25-5.61,14.21-14.62,14.69c-0.49,2.27-0.85,3.97-1.4,6.52
				c-2.38-0.36-4.5-0.68-6.94-1.04c1.97-2.59,3.36-4.42,5.66-7.45c-5.57-3.32-7.22-10.25-15.27-10.42
				c-1.62,5.58-2.51,11.14-6.94,15.96c-3.53,3.83-6.48,9.51-5.7,16.24c0.62,5.31-1.71,10.91-1.55,16.34
				c0.18,5.86,1.73,11.68,2.91,18.85c7.72-0.9,15.47,0.55,21.97,6.91c-1.18,1.77-2.07,3.11-2.91,4.38
				c-8.41-3.45-16.38-6.71-23.95-9.81c-4.33-5.73-8.45-11.2-13.02-17.26c-4.84,7.01-8.86,12.83-12.7,18.39
				c-0.37,6.75-0.74,13.27-1.09,19.75c-2.57-0.13-3.78-0.19-5.81-0.29c-0.63-4.88-1.28-9.89-2.11-16.28
				c-9.13,4.51-8.32,13.67-13.37,18.66c1.76,1.76,3.52,3.52,5.27,5.28c2.48,0,4.97,0,9.36,0c2.68,3.2,6.23,7.43,9.67,11.53
				c5.46,0,10.34,0,15.67,0c1.73,2.95,3.43,5.85,5.76,9.82c-4.95,0.75-8.37,1.27-12.01,1.83c1,2.08,1.83,3.79,2.66,5.52
				c-1.82,1.67-3.49,3.2-5.5,5.05c-5.36-6.22-10.41-12.07-15.11-17.51c-2.75,6.23-5.89-2.15-9.4-1.5
				c-4.14,0.77-8.53,0.18-12.44,0.18c-4.35,6.14-3.61,15.08-12.43,18.01c-1.51-6.94,2.47-16.13-9.73-18.23
				c-2.3,3.14-4.97,6.77-7.18,9.79c-3.83-0.74-8.06-1.56-14.8-2.87c2.59,3.41,3.5,4.6,4.24,5.57c-4.02,6.85-8.05,13.7-12.07,20.54
				c-1.95-1.09-4.33-2.42-6.57-3.67c-7.39,8.85-8.32,12.44-4.44,15.6c4.06-1.2,8.12-2.4,14.61-4.32c-2.9,6.34-4.52,9.88-6.56,14.33
				c4.38,0.8,8.18,0.7,11.09,2.25c3,1.6,5.13,4.82,7.62,7.31c5.51-1.79,9.84-3.72,14.35-4.39c1.81-0.27,4.04,2.26,7.74,4.54
				c-6.35,2.78-11.01,6.73-14.49,5.87c-4.6-1.13-6.67,6.63-10.67,2.01c-5.71-6.61-7.82,5.63-12.36,2.51
				c-1.67-1.5-2.97-2.67-2.29-2.07c-3.25,1.32-6.2,2.52-7.9,3.21c2.39,7.06,4.04,11.96,5.69,16.86c2.38-1.38,4.77-2.77,6.83-3.96
				c6.63,5.14,8.81,11.4,11.39,20.88c-7.97-3.53-13.34-5.9-18.6-8.23c-9.02,5.82-11.25,9.87-8.75,15.76
				c-2.71,3.01-5.42,6.03-6.8,7.57c3.3,10.13,5.97,18.34,9.3,28.58c1.78,1.6,5.32,4.75,9.32,8.33c4.86-4.84,8.8-8.77,12.63-12.59
				c2.58,2.58,3.9,3.9,5.61,5.61c-4.2,3.32-4.78,9.08-11.01,11.88c-3.81,1.71-4.85,9.61-7.15,14.77c1.73,1.65,3.45,3.3,4.06,3.89
				c4.77-1.19,8.6-2.15,12.52-3.13c1.15,3.06,1.96,5.21,2.77,7.37c3.38,0.61,6.75,1.21,8.59,1.54c1.62,3.33,2.52,5.2,3.14,6.47
				c5.77-1.42,11.27-4.67,14.5-3.13c4.59,2.18,8.14,4.55,13,2.06c0.71-2.3,1.37-4.42,1.62-5.21c8.27-1.33,15.23-2.45,23.7-3.81
				c3.48,2.12,7.76,5.03,14.24-0.36c8.5-7.07,18.53-12.32,28.76-18.9c1.77,0.88,4.85,2.41,8.01,3.98c1.9-3.29,3.48-6.01,6.18-10.68
				c2.67,4.57,4.24,7.25,5.81,9.94c1.32-1.32,2.56-2.72,3.97-3.93c1.73-1.49,3.6-2.82,5.12-4c2.7,1.68,4.49,2.79,6.34,3.94
				c0.93-2.58,1.71-4.73,2.08-5.75c4.77-1.53,8.61-2.76,11.29-3.62c6.12,1.32,12.04,1.74,17.2,3.95c5.29,2.26,9.69,6.53,14.74,9.45
				c6.99,4.04,14.16,7.77,21.39,11.38c4.1,2.04,9.13,2.76,12.52,5.55c3.47,2.86,4.89,8.13,8.22,11.29
				c6.79,6.44,4.56,15.27,8.57,22.88c4.48,8.49,2.63,16.44,2.22,23.26c-6.47,7.3-4.34,13.31-9.11,18.69
				c-3.36,0.3-6.02-0.07-8.15,0.82c-15.37,6.42-30.59,13.17-45.94,19.64c-5.29,2.23-10.67,4.95-16.23,5.66
				c-8.84,1.13-17.58,0.5-26.56,3.45c-8.15,2.68-17.51,2.23-26.35,3.6c-20.93,3.23-42.37,3.29-63.62,4.29
				c-9.3,0.44-18.64-0.02-27.96,0.14c-2.29,0.04-4.57,0.88-6.85,1.35c0.13,0.5,0.26,1,0.4,1.51c189.82,0,379.64,0,569.46,0
				c-4.45-2.36-9.06-3.2-13.57-2.82c-28.26,2.39-56.09-4.12-84.23-3.82c-1.24,0.01-2.98,0.54-3.65-0.08
				c-6.83-6.31-15.48-1.66-22.69-3.91c-8.17-2.55-16.21-3.42-24.64-3.58c-13.61-0.26-28.08,3.41-39.83-7.31
				c-0.34-0.31-1.21-0.06-1.83-0.04c-13.18,0.44-22.26-9.33-33.58-13.45c-12.3-4.47-17.6-12.85-23.76-20.35
				c-2.49-7.03-4.03-11.38-5.56-15.73c1.24-1.97,3.15-3.8,3.62-5.94c4.41-19.85,11.87-33.74,30.86-41.6
				c10.61-4.39,20.56-10.41,31.23-14.63c8.56-3.38,17.62-6.01,26.7-7.46c17.03-2.72,33.8,1.99,50.57,4.06
				c4.1,0.51,11.24,3.37,11.86,10.59c0.88-0.88,1.76-1.76,3.67-3.67c6.59,7.72,15.04,10.8,25.55,11.8c8.68,0.83,17,6.58,25.18,10.74
				c3.06,1.56,4.96,5.28,7.91,7.23c13.23,8.74,26.49,2.91,39.22-1.23c6.25-2.03,13.99-4.88,12.4-14.95
				c-0.34-2.13,2.76-4.79,4.85-8.15c-6.11-4.19-11.49-7.83-16.81-11.53c-4.35-3.03-8.68-6.09-12.92-9.28
				c-0.52-0.39-0.39-1.66-0.87-4.13c3.52,1.44,6.02,2.46,7.48,3.06c4.77-0.88,9.01-1.65,13.15-2.42
				C697.45,484.02,697.89,485.7,698.5,488.04z"/>
			<path class="st1" d="M698.5,488.04c-0.61-2.34-1.05-4.02-1.83-7.02c-4.14,0.76-8.38,1.54-13.15,2.42
				c-1.46-0.6-3.96-1.62-7.48-3.06c0.48,2.46,0.35,3.73,0.87,4.13c4.23,3.19,8.56,6.25,12.92,9.28c5.33,3.71,10.7,7.35,16.81,11.53
				c-2.1,3.35-5.19,6.02-4.85,8.15c1.59,10.07-6.15,12.92-12.4,14.95c-12.73,4.14-25.99,9.98-39.22,1.23
				c-2.95-1.95-4.84-5.67-7.91-7.23c-8.18-4.17-16.5-9.92-25.18-10.74c-10.51-1-18.96-4.08-25.55-11.8
				c-1.92,1.92-2.79,2.79-3.67,3.68c-0.62-7.22-7.75-10.09-11.86-10.6c-16.76-2.07-33.54-6.78-50.57-4.06
				c-9.08,1.45-18.14,4.07-26.7,7.46c-10.67,4.22-20.62,10.24-31.23,14.63c-18.99,7.86-26.45,21.75-30.86,41.6
				c-0.48,2.14,1.35,3.97,0.1,5.93c1.54,4.35-0.65,8.7,1.83,15.73c6.16,7.51,11.46,15.88,23.76,20.35
				c11.33,4.12,20.4,13.89,33.58,13.45c0.62-0.02,1.49-0.27,1.83,0.04c11.76,10.72,26.22,7.05,39.83,7.31
				c8.43,0.16,16.47,1.03,24.64,3.58c7.21,2.25,15.85-2.4,22.69,3.91c0.67,0.62,2.41,0.09,3.65,0.08
				c28.14-0.3,55.97,6.21,84.23,3.82c4.5-0.38,9.11,0.46,13.57,2.82c-189.82,0-379.64,0-569.46,0c-0.13-0.5-0.26-1-0.4-1.51
				c2.28-0.47,4.56-1.31,6.85-1.35c9.32-0.15,18.66,0.3,27.96-0.14c21.25-1.01,42.69-1.06,63.62-4.29c8.84-1.36,18.2-0.91,26.35-3.6
				c8.98-2.96,17.72-2.33,26.56-3.45c5.57-0.71,10.94-3.44,16.23-5.66c15.35-6.47,30.57-13.22,45.94-19.64
				c2.13-0.89,4.79-0.52,8.15-0.82c4.77-5.38,2.64-11.39,9.11-18.69c0.41-6.81,2.26-14.77-2.22-23.26
				c-4.02-7.62-1.79-16.44-8.57-22.88c-3.32-3.16-4.74-8.43-8.22-11.29c-3.39-2.79-8.42-3.51-12.52-5.55
				c-7.22-3.6-14.4-7.34-21.39-11.38c-5.06-2.92-9.45-7.19-14.74-9.45c-5.16-2.21-11.09-2.63-17.2-3.95
				c-2.68,0.86-6.52,2.09-11.29,3.62c-0.37,1.02-1.15,3.17-2.08,5.75c-1.85-1.15-3.64-2.26-6.34-3.94c-1.52,1.18-3.39,2.51-5.12,4
				c-1.41,1.21-2.66,2.62-3.97,3.93c-1.57-2.68-3.13-5.36-5.81-9.94c-2.7,4.67-4.28,7.39-6.18,10.68c-3.16-1.57-6.23-3.1-8.01-3.98
				c-10.23,6.58-20.25,11.83-28.76,18.9c-6.48,5.39-10.76,2.48-14.24,0.36c-8.47,1.36-15.42,2.48-23.7,3.81
				c-0.25,0.79-0.9,2.91-1.62,5.21c-4.86,2.48-8.41,0.12-13-2.06c-3.24-1.53-8.74,1.71-14.5,3.13c-0.61-1.26-1.52-3.14-3.14-6.47
				c-1.84-0.33-5.22-0.94-8.59-1.55c-0.81-2.15-1.62-4.3-2.77-7.36c-3.93,0.98-7.75,1.94-12.52,3.13c-0.61-0.58-2.33-2.23-4.06-3.89
				c2.3-5.15,3.34-13.05,7.15-14.77c6.23-2.8,6.81-8.56,11.01-11.88c-1.71-1.71-3.03-3.03-5.61-5.61
				c-3.84,3.82-7.78,7.75-12.63,12.59c-4-3.58-7.53-6.74-9.32-8.33c-3.33-10.24-6.01-18.45-9.3-28.58c1.38-1.53,4.1-4.56,6.8-7.57
				c-2.5-5.89-0.27-9.94,8.75-15.76c5.26,2.32,10.63,4.7,18.6,8.23c-2.58-9.48-4.76-15.74-11.39-20.88
				c-2.06,1.2-4.44,2.58-6.82,3.97c-1.65-4.9-3.31-9.8-5.69-16.86c1.7-0.69,4.66-1.89,7.9-3.21c-0.68-0.61,0.62,0.56,2.29,2.07
				c4.54,3.12,6.66-9.11,12.36-2.51c4,4.63,6.08-3.13,10.67-2.01c3.48,0.86,8.15-3.1,14.49-5.87c-3.71-2.28-5.93-4.8-7.74-4.54
				c-4.51,0.67-8.83,2.6-14.35,4.39c-2.49-2.49-4.63-5.71-7.62-7.31c-2.92-1.56-6.72-1.45-11.09-2.25
				c2.03-4.45,3.66-7.99,6.56-14.33c-6.49,1.92-10.55,3.12-14.61,4.33c-3.88-3.17-2.95-6.76,4.44-15.61
				c2.24,1.25,4.62,2.58,6.57,3.67c4.02-6.85,8.05-13.7,12.07-20.54c-0.74-0.97-1.65-2.16-4.24-5.57c6.75,1.31,10.97,2.13,14.8,2.87
				c2.22-3.02,4.88-6.65,7.18-9.79c12.19,2.1,8.21,11.29,9.73,18.23c8.82-2.93,8.08-11.87,12.43-18.01c3.91,0,8.3,0.59,12.44-0.18
				c3.5-0.65,6.64,7.72,9.4,1.5c4.7,5.44,9.74,11.29,15.11,17.51c2.01-1.85,3.68-3.38,5.5-5.05c-0.83-1.73-1.66-3.44-2.66-5.52
				c3.64-0.55,7.06-1.07,12.01-1.83c-2.33-3.98-4.03-6.87-5.76-9.82c-5.33,0-10.21,0-15.67,0c-3.44-4.1-6.99-8.33-9.67-11.53
				c-4.39,0-6.87,0-9.36,0c-1.76-1.76-3.52-3.52-5.27-5.27c5.05-4.99,4.24-14.15,13.37-18.66c0.83,6.38,1.47,11.4,2.11,16.28
				c2.03,0.1,3.25,0.16,5.81,0.29c0.36-6.48,0.72-13,1.09-19.75c3.84-5.56,7.86-11.38,12.7-18.39c4.57,6.06,8.7,11.53,13.02,17.26
				c7.57,3.1,15.54,6.36,23.95,9.81c0.84-1.27,1.73-2.61,2.91-4.38c-6.49-6.36-14.25-7.81-21.97-6.91
				c-1.17-7.17-2.73-12.99-2.91-18.85c-0.16-5.43,2.17-11.03,1.55-16.34c-0.78-6.72,2.17-12.4,5.7-16.24
				c4.43-4.82,5.32-10.37,6.94-15.96c8.05,0.17,9.69,7.09,15.27,10.42c-2.3,3.03-3.69,4.85-5.66,7.45c2.43,0.37,4.56,0.69,6.94,1.04
				c0.55-2.55,0.91-4.25,1.4-6.52c9.01-0.48,16.29-3.45,14.62-14.69c11-2.68,23.92-1.04,26.89-15.94c5.34,0,10.25,0,13.81,0
				c7.33,4.34,13.75,8.13,23.32,13.8c-2.54-5.68-3.91-7.84-4.44-10.19c-0.5-2.21-0.11-4.61-0.11-6.96
				c-4.15-0.45-7.09-0.77-11.76-1.28c1.31-3.45,2.4-6.31,3.92-10.32c-4.59,0-9.2,0-13.53,0c-3.21-8.94,5.94-9.33,6.92-15.59
				c2.19,1.68,3.39,2.6,4.68,3.59c7.21-1.34,14.65-2.72,23.08-4.29c3.26-5.02,7.31-11.24,11.73-18.05
				c4.04,1.99,8.16,4.01,12.23,6.01c0,3.88,0,7.61,0,11.36c3.08,1.58,6.17,3.17,9.51,4.88c3.39-1.93,7.32-4.17,11.27-6.41
				c2.89,4.47,8.04,0.7,12.31,2.89c4.44,2.27,10.93,0.5,17.92,0.5c4.12,5.47,8.73,11.61,13.67,18.18c2.58,0,5.51,0,8.1,0
				c2.15-3.58,4.26-7.07,6.21-10.31c8.1,1.53,15.55,2.93,24.17,4.55c0.55,1.16,1.76,3.7,2.96,6.21c1.39,0,2.62,0,4.58,0
				c0.62-3.25,1.27-6.65,1.93-10.07c8.08-3.62,18.55-0.3,24.95-9.46c5.41,4.1,10.43,7.8,15.28,11.7c0.74,0.6,0.72,2.14,0.95,2.91
				c6.38,1.43,12.61,2.83,19.56,4.39c0.9-0.58,2.64-1.69,5.29-3.4c0,2.81,0.71,5.33-0.12,6.03c-4.57,3.84-9.52,7.23-13.76,11.94
				c9.94-0.4,17.57-10.44,29.78-4.92c-1.24,10.29-2.54,21.08-4,33.12c12.72-4.08,12.54-17.87,22.24-21.35c0-3.4,0-5.83,0-8.13
				c3.86-1.85,7.49-3.59,11.06-5.3c8.71,2.37,6.91,11.55,13.38,17.1c-5.58,1.04-8.99,1.68-13.18,2.46
				c2.05,3.81,3.97,7.37,7.02,13.03c2.76-4.7,4.31-7.34,5.9-10.05c2.2,2.2,4.4,4.4,6.83,6.83c1.74-1.05,3.55-2.15,5.36-3.25
				c5.48,0,7.69,4.42,8.78,18.52c10.35-1.54,20.71-3.08,29.97-4.46c4.24,4.24,7.31,7.31,10.94,10.94c-0.78,1.76-1.71,3.86-2.89,6.53
				c1.2,5.13,2.58,11.07,4.47,19.15c2.46-3.2,4.16-4.97,5.34-7.04c3.09-5.44,7.36-7.76,15.04-5.44c-0.53,2.41-1.09,4.93-2.1,9.56
				c0.39,1.31,1.48,4.92,2.57,8.53c-3.15,4-6.02,7.65-9.97,12.66c3.71,1.03,5.93,1.28,7.78,2.25c1.99,1.04,3.63,2.75,4.77,3.64
				c4.15-1.84,7.13-3.16,11.31-5.01c0,7.12,0,12.54,0,18.14c2.7,0.95,4.86,1.71,7.49,2.63c0,2.76,0,5.68,0,9.93
				c-5.75,0-11.62,0-17.49,0c-0.26,1-0.53,2-0.79,3c4.3,2.02,8.61,4.04,14.38,6.75c0.31,0.62,1.52,3.07,2.87,5.78
				c6.55-2.92,12.63-5.62,18.71-8.33c0.63,0.9,1.26,1.81,1.89,2.71c-3.09,1.6-6.18,3.21-12.28,6.38
				c10.69,4.63,17.27,7.49,23.95,10.38c1.67-1.42,3.04-2.59,4.44-3.78c19.1,10.23,20.93,21.41,11.92,36.37
				c-7.56,3.07-11.14-2.66-15.38-6.87c-1.36,1.26-2.69,2.49-4.6,4.25c-1.86-0.88-3.94-1.85-7.02-3.3c-0.8,0.51-2.53,1.63-4.66,2.99
				c-2.16-1.07-4.53-2.24-7.21-3.56c-0.46,2.09-0.83,3.79-1.39,6.34c-5.54-2.39-11.58-6.68-16.25,1.16
				c-6.91-1.85-13.08-8.01-20.43-2.41c0,1.22,0,2.45,0,4.38c11.13,4.34,24.1-2.46,35.51,4.3c1.83-1.05,4.21-2.43,5.95-3.43
				c7.18,7.32,13.61,13.86,22.05,22.46c0,2,0,6.67,0,12.63c2.77-2.38,4.05-3.49,5.65-4.87c2.07,2.62,4.19,5.29,7.28,9.2
				c-7.87,2.91-14.22,5.26-20.26,7.5c-0.38,1.87-0.73,3.57-1.16,5.72c-3.28-4.35-6.17-8.18-11.46-15.19
				c-1.74,5.09-2.79,8.15-3.69,10.77c0.24,0.14,2.83,1.61,7.68,4.37c-9.23,5.31-16.42,9.45-24.44,14.06
				c0.92,0.27,3.2,0.94,7.28,2.14c-1.49,1.05,0.13-0.09,2.71-1.9c3.44,2.61,7.13,5.42,11.49,8.73c1.78-1.19,3.7-2.47,5.89-3.92
				c1.03,2.18,2.19,4.64,3.7,7.84c3.22-1.58,6.29-3.09,10.63-5.23c2.6,3.69,5.41,7.68,8.22,11.67c3.09,7.6-1.06,14.68-6.7,21.96
				C713.02,488.04,706.34,488.04,698.5,488.04z"/>
		</g>
	</g>
	<path class="st3" d="M791.93,631.36L791.93,631.36c-2.85,0-5.16-2.31-5.16-5.16V157.9c0-2.85,2.31-5.16,5.16-5.16l0,0
		c2.85,0,5.16,2.31,5.16,5.16v468.3C797.09,629.05,794.78,631.36,791.93,631.36z"/>
</g>
</svg>
