<?xml version="1.0" encoding="utf-8"?>
<!-- Generator: Adobe Illustrator 28.2.0, SVG Export Plug-In . SVG Version: 6.00 Build 0)  -->
<svg version="1.1" id="Layer_1" xmlns="http://www.w3.org/2000/svg" xmlns:xlink="http://www.w3.org/1999/xlink" x="0px" y="0px"
	 viewBox="0 0 2000 800" style="enable-background:new 0 0 2000 800;" xml:space="preserve">
<style type="text/css">
	.st0{fill:#FF0013;}
	.st1{fill:#03930A;}
	.st2{fill-rule:evenodd;clip-rule:evenodd;fill:#FF0013;}
	.st3{fill:#006838;}
	.st4{fill:#6D3600;}
	.st5{fill:url(#SVGID_1_);}
	.st6{fill:url(#SVGID_00000124877625690915020080000000316971567655670408_);}
	.st7{fill:#FF930A;}
	.st8{fill:none;}
	.st9{fill:none;stroke:#FFFFFF;stroke-width:9.2643;stroke-miterlimit:10;}
	.st10{fill:none;stroke:#FF0013;stroke-width:7.7937;stroke-linecap:round;stroke-miterlimit:10;}
</style>
<g>
	<g>
		<path d="M511.07,602.37h-40.06v-29.33h112.71v29.33h-39.87v102.35h-32.78V602.37z"/>
		<path d="M664.8,603.33v27.03c-20.13,0-32.39,11.5-32.39,29.71l-0.19-0.38v45.04h-32.39v-99.1h32.39v18.4
			C638.73,611.19,650.42,603.33,664.8,603.33z"/>
		<path d="M770.02,645.88v58.84h-31.24v-8.43c-6.9,6.9-17.25,10.73-27.41,10.73c-21.08,0-37.76-12.84-37.76-31.63
			c0-19.36,18.59-32.97,41.98-32.97c7.28,0,15.53,1.72,23.19,4.79v-1.34c0-10.54-8.05-18.21-21.66-18.21
			c-9.39,0-16.48,2.88-24.92,7.28l-10.16-20.32c13.8-6.9,27.98-11.31,43.32-11.31C750.85,603.33,770.02,619.43,770.02,645.88z
			 M738.78,675.02v-10.54c-4.98-1.92-11.88-3.26-18.59-3.26c-8.82,0-15.72,5.56-15.72,13.23c0,7.67,6.13,12.65,14.76,12.65
			C728.81,687.09,737.44,682.49,738.78,675.02z"/>
		<path d="M888.86,641.66v63.06h-31.05v-55.78c0-10.93-6.9-18.59-16.87-18.59c-9.97,0-17.44,7.47-17.44,17.25l-0.19-0.57v57.69
			h-32.39v-99.1h32.39v11.31c6.13-8.43,16.68-13.61,29.13-13.61C873.72,603.33,888.86,619.24,888.86,641.66z"/>
		<path d="M902.66,692.07l13.03-20.89c9.2,6.52,21.85,11.31,33.73,11.31c7.09,0,11.12-2.3,11.12-6.13c0-4.79-6.52-6.71-16.29-9.01
			c-19.17-4.41-36.99-9.39-37.18-30.86c0-18.98,15.53-33.16,40.06-33.16c14.76,0,29.13,5.17,40.25,12.65l-11.88,21.28
			c-8.63-5.56-19.36-9.78-28.37-9.78c-5.94,0-10.16,2.68-10.16,5.75c0,4.41,4.22,5.37,15.91,8.43c17.63,4.22,37.38,9.97,37.38,32.58
			c0,19.93-16.1,32.78-41.59,32.78C931.98,707.03,914.73,701.47,902.66,692.07z"/>
		<path d="M1117.14,655.08c0,30.48-18.78,51.94-45.43,51.94c-13.23,0-24.53-5.56-32.39-14.95v45.62h-32.59V605.63h32.59v12.65
			c7.86-9.39,19.17-14.95,32.39-14.95C1098.35,603.33,1117.14,624.8,1117.14,655.08z M1085.9,655.08c0-14.38-9.97-24.73-23.96-24.73
			c-13.42,0-22.62,10.35-22.62,24.73c0,14.57,9.2,24.92,22.62,24.92C1075.93,680,1085.9,669.65,1085.9,655.08z"/>
		<path d="M1129.59,655.08c0-28.18,25.11-51.75,55.01-51.75c29.9,0,55.01,23.58,55.01,51.75c0,28.18-25.11,51.94-55.01,51.94
			C1154.7,707.03,1129.59,683.26,1129.59,655.08z M1208.95,655.08c0-13.42-11.12-24.73-24.34-24.73
			c-13.23,0-24.34,11.31-24.34,24.73c0,13.42,11.12,24.92,24.34,24.92C1197.83,680,1208.95,668.5,1208.95,655.08z"/>
		<path d="M1321.27,603.33v27.03c-20.13,0-32.39,11.5-32.39,29.71l-0.19-0.38v45.04h-32.39v-99.1h32.39v18.4
			C1295.2,611.19,1306.89,603.33,1321.27,603.33z"/>
		<path d="M1397.74,697.63c-5.94,5.56-15.72,9.39-24.15,9.39c-18.59,0-31.63-13.23-31.63-31.82v-43.7h-13.03v-25.88h13.03v-27.22
			h31.05v27.22h20.51v25.88h-20.51v37.76c0,6.33,3.83,10.73,9.01,10.73c3.64,0,7.28-1.34,9.2-3.26L1397.74,697.63z"/>
		<path d="M1504.5,645.88v58.84h-31.24v-8.43c-6.9,6.9-17.25,10.73-27.41,10.73c-21.08,0-37.76-12.84-37.76-31.63
			c0-19.36,18.59-32.97,41.98-32.97c7.28,0,15.53,1.72,23.19,4.79v-1.34c0-10.54-8.05-18.21-21.66-18.21
			c-9.39,0-16.48,2.88-24.92,7.28l-10.16-20.32c13.8-6.9,27.98-11.31,43.32-11.31C1485.34,603.33,1504.5,619.43,1504.5,645.88z
			 M1473.26,675.02v-10.54c-4.98-1.92-11.88-3.26-18.59-3.26c-8.82,0-15.72,5.56-15.72,13.23c0,7.67,6.13,12.65,14.76,12.65
			C1463.29,687.09,1471.92,682.49,1473.26,675.02z"/>
		<path d="M1587.69,697.63c-5.94,5.56-15.72,9.39-24.15,9.39c-18.59,0-31.63-13.23-31.63-31.82v-43.7h-13.03v-25.88h13.03v-27.22
			h31.05v27.22h20.51v25.88h-20.51v37.76c0,6.33,3.83,10.73,9.01,10.73c3.64,0,7.28-1.34,9.2-3.26L1587.69,697.63z"/>
		<path d="M1603.21,576.3c0-9.01,7.67-16.87,17.25-16.87c9.39,0,16.87,7.86,16.87,16.87c0,9.39-7.48,17.25-16.87,17.25
			C1610.88,593.55,1603.21,585.69,1603.21,576.3z M1603.98,605.63h32.39v99.1h-32.39V605.63z"/>
		<path d="M1653.81,655.08c0-28.18,25.11-51.75,55.01-51.75s55.01,23.58,55.01,51.75c0,28.18-25.11,51.94-55.01,51.94
			S1653.81,683.26,1653.81,655.08z M1733.17,655.08c0-13.42-11.12-24.73-24.34-24.73s-24.34,11.31-24.34,24.73
			c0,13.42,11.12,24.92,24.34,24.92S1733.17,668.5,1733.17,655.08z"/>
		<path d="M1878.26,641.66v63.06h-31.05v-55.78c0-10.93-6.9-18.59-16.87-18.59s-17.44,7.47-17.44,17.25l-0.19-0.57v57.69h-32.39
			v-99.1h32.39v11.31c6.13-8.43,16.68-13.61,29.14-13.61C1863.12,603.33,1878.26,619.24,1878.26,641.66z"/>
	</g>
	<g>
		<path class="st1" d="M1768.39,421.74h-204.82c-14.48,0-27.57,8.63-33.27,21.94l-28.92,67.49h-71.54l188.44-438.85h71.54
			l188.44,438.85h-71.54L1768.39,421.74z M1743.48,363.61l-89.43-208.24l-54.14,126.07c-16.7,38.89,11.82,82.17,54.14,82.17H1743.48
			z"/>
		<g>
			<path d="M1253.92,345.5l0.82-2.61l-2.61-3.1c1.47-34.62-7.4-56.23-7.4-56.23c-42.46-40.5-169.95-35.71-169.95-35.71
				s-71.53-42.95-94.06-49.64c-22.54-6.7-40.01-9.8-68.59-11.27c-28.58-1.47-93.08-2.45-132.77,8c-39.68,10.45-98.8,38-98.8,38
				l-46.27,5.12c-5.55-2.61-10.78-0.65-10.78-0.65c-4.03,4.46-1.74,10.34-1.74,10.34s-8.17,11.21-7.73,17.42
				c0.44,6.21,6.97,8.93,6.97,8.93l-4.03,18.07l-11.87,6.53L605,316.32l-1.36,7.13c1.31,3.59,8.82,6.04,8.82,6.04l10.94,12.08
				l65.81,10.78c-5.06-19.6,9.63-75.61,63.53-67.56c55.13,8.24,46.87,72.46,46.87,72.46h284.8c-4.57-46.87,23.52-79.44,70.55-70.3
				c46.31,9,40.82,71.61,40.82,71.61l58.63-8.33l1.8-1.63L1253.92,345.5z M640.22,275.55l-17.58-1.36c0,0-6.8-3.3-7.4-8.58
				c-0.47-4.13,4.13-12.05,4.13-12.05s6.21-0.49,10.12,0c3.92,0.49,15.62,3.21,15.62,3.21L640.22,275.55z M771.68,245.09
				c-33.25-0.71-55.63-1.16-55.63-1.16s33.31-21.56,69.46-35.93c3.68-1.46,7.81-2.86,12.31-4.17L771.68,245.09z M797.6,245.64
				l-4.15-18.69l14.99-25.87c20.71-4.82,46.84-7.97,73.57-8.48l7.8,55.09C857.74,246.96,825.47,246.24,797.6,245.64z
				 M1011.94,230.72c-3.84-0.3-12.8,0.16-14.33,10.43c0,0-0.25,5.3,5.55,8.49c0.74,0.42,1.71,0.74,2.81,1.01
				c-24.14-0.71-55.09-1.5-87.75-2.27h-0.01l-20.94-55.77c20.24,0.39,40.29,2.39,58.08,6.41c20.76,4.69,40.49,14.16,56.71,23.83
				L1011.94,230.72z M1060.57,248.99c0,0-50.13-34.29-85.24-47.68l4.74-2.29c0,0,36.04,13.77,90.8,49.15L1060.57,248.99z
				 M1190.31,283.45c-1.55-2.37-1.31-4,0.9-4.25c0,0,24.17,0.24,31.84,0.73c7.68,0.49,18.7,4.87,18.7,4.87l2.45,9.75h-8.08
				l-4.25,5.72l-24.25-3.02C1207.62,297.25,1191.86,285.81,1190.31,283.45z M1246.35,342.89l-28.52,2.07c0,0,4.14-15.68,9.91-19.71
				h21.23C1248.96,325.25,1249.29,335.7,1246.35,342.89z"/>
			<path d="M743.56,290.12c-26.88,0-48.66,21.79-48.66,48.66c0,26.88,21.79,48.66,48.66,48.66c26.88,0,48.66-21.79,48.66-48.66
				C792.22,311.91,770.43,290.12,743.56,290.12z M776.64,322.31l-2.18,5.43c0,0-10.61,0.11-25.48,10.89l-1.05-1.12l26.02-19.48
				L776.64,322.31z M763.14,312.35l5.83-0.56l3.35,3.78l-26.01,19.5l-0.78-1.32C760.05,322.51,763.14,312.35,763.14,312.35z
				 M725.66,306.49l4.63-2.01l10.47,30.78l-1.5,0.33c-6.18-17.29-14.88-23.38-14.88-23.38L725.66,306.49z M706.15,333.62l4.99-3.31
				c0,0,8.96,6.08,27.69,5.65l0.23,1.55l-33.15,1.27L706.15,333.62z M706.47,346.94l-0.61-5.13l33.15-1.29l-0.12,1.57
				c-18.71,1.02-27.21,7.77-27.21,7.77L706.47,346.94z M727.11,372.66l-1.55-5.65c0,0,8.39-6.51,13.72-24.07l1.51,0.25l-8.95,31.25
				L727.11,372.66z M743.88,372.42l-4.3,3.97l-4.95-0.98l8.93-31.26l1.42,0.58C740.21,362.46,743.88,372.42,743.88,372.42z
				 M743.59,334.46l-10.45-30.78l4.9-1.22l4.49,3.76c0,0-3.18,10.12,2.45,27.6L743.59,334.46z M772.09,363.1l-5.98,0.22
				c0,0-4.47-9.87-20.66-19.28l0.61-1.45l28.93,16.23L772.09,363.1z M776.62,356.27l-28.94-16.21l0.92-1.27
				c16.49,8.9,27.26,7.58,27.26,7.58l2.92,5.21L776.62,356.27z"/>
			<path d="M743.56,290.12c-26.88,0-48.66,21.79-48.66,48.66c0,26.88,21.79,48.66,48.66,48.66c26.88,0,48.66-21.79,48.66-48.66
				C792.22,311.91,770.43,290.12,743.56,290.12z M776.64,322.31l-2.18,5.43c0,0-10.61,0.11-25.48,10.89l-1.05-1.12l26.02-19.48
				L776.64,322.31z M763.14,312.35l5.83-0.56l3.35,3.78l-26.01,19.5l-0.78-1.32C760.05,322.51,763.14,312.35,763.14,312.35z
				 M725.66,306.49l4.63-2.01l10.47,30.78l-1.5,0.33c-6.18-17.29-14.88-23.38-14.88-23.38L725.66,306.49z M706.15,333.62l4.99-3.31
				c0,0,8.96,6.08,27.69,5.65l0.23,1.55l-33.15,1.27L706.15,333.62z M706.47,346.94l-0.61-5.13l33.15-1.29l-0.12,1.57
				c-18.71,1.02-27.21,7.77-27.21,7.77L706.47,346.94z M727.11,372.66l-1.55-5.65c0,0,8.39-6.51,13.72-24.07l1.51,0.25l-8.95,31.25
				L727.11,372.66z M743.88,372.42l-4.3,3.97l-4.95-0.98l8.93-31.26l1.42,0.58C740.21,362.46,743.88,372.42,743.88,372.42z
				 M743.59,334.46l-10.45-30.78l4.9-1.22l4.49,3.76c0,0-3.18,10.12,2.45,27.6L743.59,334.46z M772.09,363.1l-5.98,0.22
				c0,0-4.47-9.87-20.66-19.28l0.61-1.45l28.93,16.23L772.09,363.1z M776.62,356.27l-28.94-16.21l0.92-1.27
				c16.49,8.9,27.26,7.58,27.26,7.58l2.92,5.21L776.62,356.27z"/>
			<path d="M1140.65,290.12c-26.88,0-48.66,21.79-48.66,48.66c0,26.88,21.79,48.66,48.66,48.66s48.66-21.79,48.66-48.66
				C1189.32,311.91,1167.53,290.12,1140.65,290.12z M1173.74,322.31l-2.18,5.43c0,0-10.61,0.11-25.48,10.89l-1.05-1.12l26.02-19.48
				L1173.74,322.31z M1160.24,312.35l5.83-0.56l3.35,3.78l-26.01,19.5l-0.78-1.32C1157.15,322.51,1160.24,312.35,1160.24,312.35z
				 M1122.76,306.49l4.63-2.01l10.47,30.78l-1.5,0.33c-6.18-17.29-14.88-23.38-14.88-23.38L1122.76,306.49z M1103.25,333.62
				l4.99-3.31c0,0,8.96,6.08,27.69,5.65l0.23,1.55l-33.15,1.27L1103.25,333.62z M1103.57,346.94l-0.61-5.13l33.15-1.29l-0.12,1.57
				c-18.71,1.02-27.21,7.77-27.21,7.77L1103.57,346.94z M1124.21,372.66l-1.55-5.65c0,0,8.39-6.51,13.72-24.07l1.51,0.25
				l-8.95,31.25L1124.21,372.66z M1140.98,372.42l-4.3,3.97l-4.95-0.98l8.93-31.26l1.42,0.58
				C1137.31,362.46,1140.98,372.42,1140.98,372.42z M1140.69,334.46l-10.45-30.78l4.9-1.22l4.49,3.76c0,0-3.18,10.12,2.45,27.6
				L1140.69,334.46z M1169.19,363.1l-5.98,0.22c0,0-4.47-9.87-20.66-19.28l0.61-1.45l28.93,16.23L1169.19,363.1z M1173.72,356.27
				l-28.94-16.21l0.92-1.27c16.49,8.9,27.26,7.58,27.26,7.58l2.92,5.21L1173.72,356.27z"/>
			<path d="M1140.65,290.12c-26.88,0-48.66,21.79-48.66,48.66c0,26.88,21.79,48.66,48.66,48.66s48.66-21.79,48.66-48.66
				C1189.32,311.91,1167.53,290.12,1140.65,290.12z M1173.74,322.31l-2.18,5.43c0,0-10.61,0.11-25.48,10.89l-1.05-1.12l26.02-19.48
				L1173.74,322.31z M1160.24,312.35l5.83-0.56l3.35,3.78l-26.01,19.5l-0.78-1.32C1157.15,322.51,1160.24,312.35,1160.24,312.35z
				 M1122.76,306.49l4.63-2.01l10.47,30.78l-1.5,0.33c-6.18-17.29-14.88-23.38-14.88-23.38L1122.76,306.49z M1103.25,333.62
				l4.99-3.31c0,0,8.96,6.08,27.69,5.65l0.23,1.55l-33.15,1.27L1103.25,333.62z M1103.57,346.94l-0.61-5.13l33.15-1.29l-0.12,1.57
				c-18.71,1.02-27.21,7.77-27.21,7.77L1103.57,346.94z M1124.21,372.66l-1.55-5.65c0,0,8.39-6.51,13.72-24.07l1.51,0.25
				l-8.95,31.25L1124.21,372.66z M1140.98,372.42l-4.3,3.97l-4.95-0.98l8.93-31.26l1.42,0.58
				C1137.31,362.46,1140.98,372.42,1140.98,372.42z M1140.69,334.46l-10.45-30.78l4.9-1.22l4.49,3.76c0,0-3.18,10.12,2.45,27.6
				L1140.69,334.46z M1169.19,363.1l-5.98,0.22c0,0-4.47-9.87-20.66-19.28l0.61-1.45l28.93,16.23L1169.19,363.1z M1173.72,356.27
				l-28.94-16.21l0.92-1.27c16.49,8.9,27.26,7.58,27.26,7.58l2.92,5.21L1173.72,356.27z"/>
		</g>
		<g>
			<path class="st8" d="M1097.93,350.2c0-0.04-0.01-0.08-0.03-0.12l0.01,0.1L1097.93,350.2z"/>
			<rect x="1077.21" y="368.95" class="st8" width="0.01" height="83.44"/>
			<path class="st8" d="M1077.22,221.8c0-50.1,40.61-90.71,90.71-90.71h0c55.48,0,101.82,19.83,132.44,53.12
				c-2.59-2.82-5.3-5.55-8.11-8.17c-30.42-28.34-73.53-44.96-124.32-44.96C1117.83,131.09,1077.21,171.71,1077.22,221.8l-0.01,14.26
				c0,0,0,0,0.01,0V221.8z"/>
			<path class="st8" d="M1167.93,131.09L1167.93,131.09c-50.1,0-90.71,40.61-90.71,90.71v14.26c26.21-0.61,133.31-0.52,174.76,39.03
				l1.81,1.71l0.95,2.3c0.38,0.9,9.05,22.29,8.42,56.57l3.87,4.57l-0.97,3.09l5.03,6.83l-12.26,11.13l-67.88,9.65
				c-10.92,17.39-30.02,28.19-51.07,28.19c-21.91,0-41.66-11.74-52.27-30.19h-10.36v83.44h90.71
				c101.57,0,172.46-66.43,172.46-160.97c0-42.6-14.6-79.55-40.03-107.21C1269.74,150.92,1223.41,131.09,1167.93,131.09z"/>
			<path class="st1" d="M1164.1,72.33h-151.39v127.71c24.6,12.59,54.11,29.94,64.34,36.02h0.17V221.8
				c0-50.09,40.62-90.71,90.72-90.71c50.79,0,93.9,16.61,124.32,44.96c2.81,2.62,5.52,5.35,8.11,8.17
				c25.44,27.66,40.03,64.61,40.03,107.21c0,94.54-70.91,160.97-172.47,160.97h-90.71v-0.01h-0.01v-83.44h-64.51v142.22h151.39
				c141.81,0,242.74-91.36,242.74-219.74C1406.84,163.03,1305.91,72.33,1164.1,72.33z"/>
			<path class="st1" d="M1167.93,452.4h-90.71v0.01L1167.93,452.4c101.56,0.01,172.47-66.43,172.47-160.97
				c0-42.61-14.6-79.56-40.03-107.21c25.43,27.66,40.03,64.61,40.03,107.21C1340.39,385.97,1269.5,452.4,1167.93,452.4z"/>
			<path class="st7" d="M1098.74,350.2c0-0.04-0.01-0.08-0.03-0.12l0.01,0.1L1098.74,350.2z"/>
		</g>
		<g>
			<path class="st1" d="M854.4,368.95c-29.53,51.56-85.98,86.43-150.76,86.43c-95.35,0-172.65-75.5-172.65-168.64
				s77.3-168.64,172.65-168.64c51.71,0,98.1,22.21,129.75,57.4c29.75-1.83,58.4-1.09,72.3-0.52
				c-40.9-66.84-116.77-112.67-201.71-112.67c-126.26,0-232.96,102.27-232.96,224.12s106.69,224.75,232.96,224.75
				c96.74,0,181.72-59.81,216.66-142.22H854.4z"/>
		</g>
		<g>
			<path d="M468.93,193.75L121.74,511.17l333.03-175.5c-3.52-15.97-5.38-32.46-5.38-49.28
				C449.39,253.79,456.38,222.48,468.93,193.75z"/>
			<path d="M151.01,511.18l339.48-92.8c-13-19.29-23.29-40.35-30.33-62.62L151.01,511.18z"/>
			<path d="M505.6,438.55l-292.39,72.62l343-25.89C537.28,471.95,520.24,456.2,505.6,438.55z"/>
		</g>
	</g>
	<line class="st10" x1="471.01" y1="535.31" x2="1878.26" y2="535.31"/>
</g>
</svg>
