<?xml version="1.0" encoding="UTF-8"?>
<svg id="Layer_1" data-name="Layer 1" xmlns="http://www.w3.org/2000/svg" viewBox="0 0 1000 600">
  <defs>
    <style>
      .cls-1 {
        fill: #ff0013;
      }

      .cls-2 {
        fill: #03930a;
      }
    </style>
  </defs>
  <path class="cls-2" d="M846.29,321.54h-92.54c-6.54,0-12.46,3.9-15.03,9.91l-13.07,30.49h-32.32l85.14-198.28h32.32l85.14,198.28h-32.32l-17.32-40.41ZM835.03,295.27l-40.41-94.09-24.46,56.96c-7.55,17.57,5.34,37.13,24.46,37.13h40.41Z"/>
  <path class="cls-2" d="M682.94,262.66c0,58-45.6,99.28-109.67,99.28h-68.4v-61c.74,0,1.48,0,2.21,0,4.19,0,8.36.2,12.77.41,4.43.21,9.02.43,13.64.43.17,0,.35,0,.52,0v33.61h0s40.98,0,40.98,0c.18,0,.36,0,.54,0,.22,0,.44,0,.67,0,.4,0,.8-.01,1.2-.02.27,0,.53-.01.8-.02.13,0,.25,0,.38,0h.06c.21,0,.41-.02.62-.03.14,0,.28,0,.43-.01.45-.02.89-.05,1.34-.07.11,0,.22-.01.33-.02.26-.01.52-.03.78-.05.78-.05,1.56-.12,2.33-.19.69-.06,1.37-.14,2.05-.22.34-.04.68-.08,1.01-.12.61-.08,1.21-.16,1.81-.25.07,0,.14-.02.2-.03,0,0,0,0,0,0,.03,0,.06-.01.1-.01.63-.09,1.26-.19,1.88-.3h0c.18-.04.35-.06.52-.09.48-.08.97-.17,1.45-.27.33-.06.65-.13.97-.19.23-.05.47-.09.71-.15.09-.02.17-.04.26-.06.16-.03.32-.07.48-.1.16-.03.32-.07.48-.11,0,0,0,0,0,0,.22-.05.44-.09.66-.15.09-.02.17-.04.26-.06.29-.07.58-.14.87-.21.16-.05.32-.08.47-.12.28-.07.56-.15.83-.22.09-.02.19-.05.28-.07.12-.03.25-.07.37-.1.01,0,.02,0,.04,0,0,0,0,0,0,0,.3-.08.61-.17.91-.25.31-.09.63-.19.94-.28h0c.09-.03.18-.05.27-.08.22-.07.43-.14.65-.2h0c.12-.04.23-.08.35-.11.11-.03.23-.07.34-.11.37-.13.75-.25,1.12-.38.6-.2,1.2-.42,1.78-.63,0,0,0,0,0,0,.59-.21,1.17-.44,1.76-.67.29-.11.58-.23.87-.35h0c.12-.05.24-.1.36-.15.17-.07.33-.14.5-.21h0c.28-.12.57-.24.85-.37h0c.09-.04.18-.08.26-.12.19-.09.39-.17.59-.26h0s.09-.04.13-.06c.52-.23,1.03-.48,1.55-.73.55-.27,1.1-.54,1.64-.82.4-.2.8-.41,1.19-.62.05-.02.09-.05.14-.08.19-.1.37-.2.56-.31.09-.04.17-.09.26-.14.09-.05.17-.09.26-.14h0s.03-.02.05-.03l.75-.42h0c.26-.15.52-.31.79-.46.26-.15.52-.31.77-.47.52-.31,1.03-.63,1.53-.96.5-.33,1-.66,1.5-.99.74-.5,1.47-1.02,2.19-1.55.48-.35.95-.71,1.42-1.08.38-.3.76-.6,1.13-.9.37-.3.75-.61,1.11-.92.37-.31.73-.63,1.09-.94.02-.02.05-.04.07-.06.33-.3.66-.6.99-.9.22-.19.42-.39.64-.59.21-.2.42-.4.63-.61.23-.22.45-.44.66-.66.22-.22.44-.44.66-.67.22-.22.43-.45.65-.67.79-.82,1.55-1.67,2.28-2.53.28-.32.54-.63.81-.96.37-.45.74-.91,1.1-1.37.18-.23.36-.46.53-.7.35-.47.7-.94,1.04-1.41.24-.33.47-.67.7-1,.27-.38.53-.78.79-1.17.13-.19.26-.39.38-.59.03-.05.06-.1.09-.15h0c.1-.16.21-.33.31-.49.05-.08.11-.17.16-.25h0c.15-.25.31-.5.46-.75.24-.39.47-.8.7-1.2.09-.14.17-.29.25-.44.02-.04.05-.08.06-.11.11-.18.21-.36.31-.55.28-.52.56-1.04.84-1.57.27-.52.54-1.05.8-1.59,0,0,0,0,0,0,.26-.53.51-1.07.75-1.61.11-.24.22-.49.33-.74,0-.02.02-.05.03-.08h0c.04-.09.07-.17.11-.26,0,0,0,0,0-.01.08-.18.16-.37.24-.55h0c.12-.28.23-.56.34-.83.21-.52.42-1.04.61-1.57.01-.04.03-.07.04-.11h0c.03-.08.06-.15.09-.23,0-.02.01-.04.02-.06.07-.18.14-.37.2-.55h0c.1-.29.2-.57.3-.85h0s.02-.07.03-.1c.06-.16.12-.33.17-.49.03-.09.06-.18.09-.27.02-.06.04-.12.06-.18.08-.23.15-.46.22-.69.19-.58.37-1.16.53-1.75.34-1.17.66-2.37.94-3.57.07-.3.14-.61.21-.91.14-.61.27-1.22.38-1.83.06-.31.12-.61.17-.92.02-.08.03-.15.05-.23.03-.17.06-.34.09-.52.02-.1.04-.19.05-.29.01-.07.03-.14.04-.21.02-.12.04-.24.06-.37.01-.1.03-.21.05-.31.04-.25.08-.5.11-.75,0-.04,0-.08.01-.12.02-.15.05-.31.07-.47.03-.16.05-.32.07-.47.04-.32.08-.63.12-.95,0-.04.01-.08.02-.12.01-.12.03-.25.04-.38.02-.15.04-.3.05-.46h0c.04-.32.07-.64.1-.96.02-.22.04-.44.06-.67,0-.09.01-.19.02-.29,0,0,0,0,0,0,.01-.17.03-.34.04-.52,0-.13.02-.25.03-.38,0-.05,0-.1,0-.16,0-.05,0-.09.01-.14.01-.17.02-.34.03-.52,0-.08,0-.16.01-.24,0-.15.02-.3.03-.45.02-.4.04-.8.05-1.2,0-.1,0-.21,0-.31h0c0-.15.01-.3.01-.46,0-.18.01-.35.01-.53,0-.12,0-.23,0-.35,0-.22,0-.43,0-.65,0-.06,0-.12,0-.18,0-.28,0-.55,0-.83,0-.15,0-.3,0-.45,0-.15,0-.3,0-.45v-.03c0-.16,0-.32,0-.48,0-.13,0-.26,0-.39,0-.03,0-.06,0-.09,0-.5-.03-1-.05-1.5,0-.06,0-.12,0-.19,0-.05,0-.1,0-.15-.03-.73-.07-1.45-.13-2.17,0-.11-.01-.22-.03-.32-.02-.29-.04-.59-.07-.88,0-.01,0-.03,0-.04-.02-.28-.05-.56-.08-.83,0-.13-.02-.26-.04-.39-.04-.43-.09-.86-.14-1.28-.12-1.03-.27-2.05-.43-3.06-.02-.13-.05-.26-.07-.39-.02-.17-.05-.33-.08-.49,0-.03,0-.06-.01-.09-.01-.09-.03-.17-.05-.26-.05-.28-.09-.56-.15-.84,0-.05-.02-.11-.03-.16-.04-.22-.09-.45-.14-.67-.01-.08-.03-.16-.05-.25-.03-.13-.05-.25-.08-.38-.01-.06-.03-.13-.05-.2-.03-.14-.06-.28-.09-.41-.07-.34-.15-.67-.23-1.01-.01-.07-.03-.15-.05-.22-.05-.24-.11-.48-.17-.72,0-.01,0-.03-.01-.05-.07-.28-.15-.57-.22-.85-.02-.1-.05-.2-.07-.29-.03-.1-.05-.2-.09-.31-.02-.07-.04-.14-.06-.2-.03-.14-.07-.27-.11-.4-.07-.27-.15-.53-.23-.8-.04-.13-.08-.26-.12-.39-.04-.15-.09-.3-.13-.45-.04-.12-.07-.23-.11-.34-.02-.06-.04-.13-.06-.2-.06-.2-.12-.4-.19-.59,0-.03-.02-.06-.03-.09-.07-.23-.15-.45-.23-.68-.05-.16-.1-.31-.16-.47-.04-.1-.07-.21-.11-.31-.09-.26-.18-.52-.28-.77-.03-.1-.07-.19-.1-.29-.04-.09-.07-.19-.11-.29-.02-.06-.05-.12-.07-.18-.05-.14-.1-.29-.16-.43-.18-.47-.36-.94-.56-1.4-.14-.33-.28-.67-.42-1-.2-.48-.42-.97-.64-1.45-.03-.07-.07-.15-.1-.22-.04-.08-.07-.16-.11-.24-.15-.32-.3-.64-.46-.96-.04-.09-.08-.17-.13-.25-.02-.05-.05-.1-.07-.15,0,0,0-.02-.01-.03-.19-.38-.38-.76-.58-1.14-.46-.89-.94-1.77-1.45-2.63-.05-.09-.1-.19-.16-.28-.03-.06-.06-.11-.09-.17-.04-.07-.08-.14-.12-.2-.1-.17-.2-.34-.3-.51-.06-.11-.13-.22-.2-.33-.04-.05-.07-.1-.1-.16-.02-.04-.05-.08-.07-.12-.03-.06-.07-.12-.11-.18-.22-.36-.44-.7-.67-1.05-.23-.37-.47-.73-.73-1.09-.05-.08-.1-.16-.16-.24h0s-.01-.02-.02-.03c-.26-.39-.53-.77-.81-1.16-.1-.15-.21-.3-.32-.44-.04-.06-.09-.13-.14-.19,0,0,0-.02-.02-.03-.09-.14-.2-.29-.32-.43-.11-.16-.23-.32-.36-.48-.05-.07-.09-.14-.15-.2-.15-.2-.31-.4-.47-.6-.07-.09-.14-.19-.22-.28-.14-.18-.29-.36-.44-.54-.21-.27-.42-.52-.65-.79-.03-.04-.07-.09-.1-.13h0c-.14-.17-.28-.34-.43-.51-.14-.16-.28-.32-.42-.48-.02-.02-.04-.05-.06-.07-.33-.37-.66-.75-1-1.11-1.08-1.17-2.2-2.31-3.37-3.41-.09-.09-.19-.19-.29-.28-.02-.02-.04-.04-.06-.05-.04-.03-.07-.07-.1-.1-.08-.08-.16-.15-.25-.23-.23-.22-.47-.43-.71-.65-.48-.43-.97-.85-1.46-1.27-.25-.21-.49-.42-.74-.62h0c-.25-.2-.5-.41-.75-.61-2.99-2.38-6.2-4.53-9.62-6.43-.16-.09-.33-.19-.5-.28-.18-.1-.36-.19-.53-.29-1.17-.63-2.37-1.23-3.59-1.81-.28-.13-.55-.26-.83-.38-.64-.29-1.29-.57-1.94-.85-.3-.13-.61-.26-.91-.38-.37-.15-.75-.3-1.12-.45-.28-.11-.55-.21-.83-.32-.64-.24-1.29-.48-1.94-.7-.65-.23-1.31-.45-1.97-.66-.5-.16-1-.32-1.5-.47-.42-.13-.85-.25-1.28-.37-.08-.02-.16-.05-.24-.06-.25-.08-.51-.14-.77-.21-.17-.05-.34-.09-.51-.14-.21-.06-.43-.11-.65-.17-.38-.1-.78-.19-1.17-.29-.69-.17-1.39-.33-2.1-.47-.48-.1-.97-.2-1.45-.3-1.95-.39-3.94-.71-5.96-.97-1.01-.13-2.03-.24-3.06-.34-.52-.05-1.03-.09-1.55-.14-2.64-.21-5.33-.32-8.07-.32-2.14,0-4.24.16-6.29.48,0,0,0,0,0,0-.68.1-1.36.23-2.03.37-.67.14-1.34.29-2,.47-3.96,1.03-7.69,2.63-11.08,4.72,0,0,0,0,0,0-.85.52-1.68,1.07-2.48,1.65-.54.38-1.06.78-1.58,1.2-1.3,1.03-2.53,2.14-3.69,3.32-2.13,2.16-4.01,4.54-5.62,7.12-.32.52-.63,1.03-.93,1.57-.15.26-.3.53-.44.8-.29.54-.56,1.08-.83,1.63-.53,1.1-1.01,2.23-1.44,3.39-.22.58-.42,1.16-.61,1.75-.19.59-.37,1.18-.53,1.79-.16.6-.31,1.21-.45,1.82-.07.31-.14.61-.19.93-.05.23-.09.46-.13.7-.13.7-.24,1.4-.33,2.11-9.03-4.72-18.4-9.33-28.63-12.05-.28-.07-.56-.14-.84-.22v-50.08h68.4c64.07,0,109.67,40.98,109.67,99Z"/>
  <path class="cls-2" d="M462.07,300.38c-16.46,35.84-54.05,61.56-96.7,61.56-57.05,0-105.25-46.5-105.25-101.55s48.21-101.26,105.25-101.26c37.43,0,70.96,19.69,89.73,48.68-9.7.1-19.53.89-29.65,2.36h-.01c-.53.03-1.06.06-1.59.09-14.3-15.9-35.26-25.93-58.62-25.93-43.08,0-78.01,34.11-78.01,76.19s34.93,76.19,78.01,76.19c28.37,0,53.21-14.8,66.86-36.94,7.16.12,14.4.27,21.43.41,2.84.06,5.69.12,8.56.17Z"/>
  <g>
    <path d="M259.17,218.52l-156.87,143.42,150.47-79.3c-1.59-7.22-2.43-14.67-2.43-22.26,0-14.73,3.16-28.88,8.82-41.86Z"/>
    <path d="M115.53,361.94l153.38-41.93c-5.87-8.72-10.52-18.23-13.7-28.29l-139.68,70.22Z"/>
    <path d="M275.74,329.13l-132.11,32.81,154.97-11.7c-8.55-6.03-16.25-13.14-22.87-21.12Z"/>
  </g>
  <path class="cls-1" d="M895.93,374.61H260.12c-.97,0-1.76-.79-1.76-1.76s.79-1.76,1.76-1.76h635.81c.97,0,1.76.79,1.76,1.76s-.79,1.76-1.76,1.76Z"/>
  <g>
    <path d="M471.41,247.9c-.38-.04-.79-.09-1.23-.14.47.35.92.6,1.35.79-.04-.23-.08-.42-.12-.65ZM471.41,247.9c-.38-.04-.79-.09-1.23-.14.47.35.92.6,1.35.79-.04-.23-.08-.42-.12-.65ZM471.41,247.9c-.38-.04-.79-.09-1.23-.14.47.35.92.6,1.35.79-.04-.23-.08-.42-.12-.65ZM471.41,247.9c-.38-.04-.79-.09-1.23-.14.47.35.92.6,1.35.79-.04-.23-.08-.42-.12-.65ZM471.41,247.9c-.38-.04-.79-.09-1.23-.14.47.35.92.6,1.35.79-.04-.23-.08-.42-.12-.65ZM471.41,247.9c-.38-.04-.79-.09-1.23-.14.47.35.92.6,1.35.79-.04-.23-.08-.42-.12-.65ZM610.65,258.63s0,.02,0,.03h.02l-.03-.03ZM471.41,247.9c-.38-.04-.79-.09-1.23-.14.47.35.92.6,1.35.79-.04-.23-.08-.42-.12-.65Z"/>
    <path d="M410.32,218.63c-.18-.68-.34-1.28-.56-2.08,3.18-.73,6.13-.46,9.67.33-3.39.65-6.21,1.19-9.11,1.75Z"/>
    <path d="M553.32,241.45c-.13-.01-.26-.03-.38-.04-.31-.27-.63-.54-.89-.76,2.2.17,4.33.33,6.45.49-.01.25-.03.51-.04.76-1.71-.15-3.43-.3-5.14-.45Z"/>
    <path d="M391.65,269.97c2.59.32,4.57.56,6.7.83-.54,1.71-1,3.14-1.47,4.62-.45-.04-.78-.07-1.36-.13.23.57.42,1.02.69,1.68-.18.57-.43,1.4-.7,2.28-.64-.1-1.17-.19-1.85-.3-.62-2.79-1.25-5.63-2-8.98Z"/>
    <path d="M400.01,282.68c-.46-.59-.74-.97-1.06-1.38,1.79-2.16,3.56-4.3,5.59-6.74,1.31,1.98,2.47,3.72,3.9,5.86-3.06.82-5.77,1.55-8.42,2.26Z"/>
    <path d="M399.88,288.19c.05-.2.21-.76.39-1.41,2.9.25,5.72.49,8.69.74-.18,2.24-.79,4.17-2.13,6.23-2.35-1.88-4.58-3.67-6.95-5.56Z"/>
    <path d="M395.35,291.62c.5-.17.96-.33,1.67-.57,1.57,2.47,3.2,5.06,4.84,7.64-.09.07-.19.14-.28.2-.21-.27-.41-.54-.67-.88-.05.18-.09.31-.15.5-.12-.19-.23-.36-.34-.52-.46.14-.86.26-1.6.48.46.15.73.23.92.3-.24.55-.37.84-.53,1.21-.61-.4-1.16-.77-1.81-1.2-.29.06-.67.13-1.05.2-.16.33-.31.63-.62,1.26-.14-3.11-.27-5.86-.39-8.62Z"/>
    <path d="M390.08,290.04c.5.42.86.73,1.46,1.24-.82,2.55-1.7,5.29-2.8,8.7.07-1.05.09-1.41.12-1.86-1.19-.8-2.41-1.63-3.74-2.53-.34.12-.78.28-1.47.53,2.3-2.18,4.42-4.18,6.43-6.09Z"/>
    <path d="M387.92,286.91c.04.11.08.21.12.32-2.64.99-5.27,1.98-8.03,3.02,2.22-1.77-.08-3.52.36-5.2-.7-.26-1.27-.46-2.66-.97,4.01.47,7.16.84,10.37,1.22-.09.63-.14.97-.22,1.5"/>
    <path d="M385.19,274.35c-.13-.29-.3-.69-.48-1.09.13-.07.25-.14.38-.22,1.67,2.48,3.35,4.97,5.02,7.46-.51.47-.92.85-1.37,1.26-.14-.06-.35-.14-.36-.15-.14-1.91-1.99-1.81-2.78-3.04-.29.54-.43.81-.62,1.17-.87-.47-1.73-.95-2.88-1.57,1.08-1.35,2.07-2.58,3.08-3.83Z"/>
    <path d="M387.3,283.96c-2.63-.85-5.19-1.69-7.86-2.55.03-.37.06-.77.1-1.26.35.06.62.1.93.15-.04.32-.08.58-.17,1.22.5-.45.74-.65,1-.89,2.3.79,4.62,1.58,7.2,2.47-.58.42-.89.65-1.19.87Z"/>
    <path d="M400.87,272.35c.5.23.9.42,1.56.73-1.52,2.22-3.01,4.38-4.49,6.54-.25-.22-.49-.43-.74-.65,1.21-2.19,2.43-4.39,3.67-6.63Z"/>
    <path d="M398.12,290.53c.55-.09.75-.4-.26-2.35,2.79,2.98,4.49,4.8,6.25,6.68-.12.19-.26.41-.6.97.61-.1.95-.16,1.63-.27-.37.5-.63.85-.65.88-2.13-1.97-4.2-3.89-6.37-5.9Z"/>
    <path d="M389.17,287.84c-.09,1.05-.11,1.32-.14,1.58-2.03,1.29-4,2.54-5.93,3.76-.29-.34-.55-.66-.9-1.07,2.17-1.33,4.36-2.68,6.96-4.28Z"/>
    <path d="M389.59,272.48c.81,2.14,1.6,4.24,2.43,6.43-.45.03-.82.05-1.21.08-.99-2.44-1.97-4.84-2.99-7.34.44-.19.8-.34,1.54-.65-.26.65-.39.97-.55,1.38.21.03.46.07.79.11Z"/>
    <path d="M393.16,298.88h-1.33c.28-2.44.55-4.84.83-7.31.45-.07.8-.12,1.29-.2-.27,2.57-.52,4.98-.79,7.51Z"/>
    <path d="M408.87,283.16v1.5c-2.56.17-5.13.35-7.75.52v-1.02c2.55-.33,5.11-.66,7.75-1Z"/>
    <path d="M575,280.12c.43-3.34.81-6.23,1.23-9.47,2.12.66,4.05,1.25,6.21,1.92-2.07,3.04-3.65,6.09-7.44,7.55Z"/>
    <path d="M571.07,280.37c-.65-.05-.95-.07-1.33-.1-.08.2-.17.43-.32.79-2-1.87-3.97-3.71-6.2-5.8,1.96-1.25,3.73-2.38,5.86-3.74.71,3.15,1.33,5.89,1.99,8.85Z"/>
    <path d="M559.78,288.05c-.1-1.74-.18-3.06-.25-4.37-.07,0-.14,0-.21-.01-.07,1.37-.14,2.74-.21,4.12-.17-.02-.33-.03-.5-.05.22-1.99.44-3.99.7-6.26,2.91,1.13,5.45,2.12,8.09,3.15-.1.52-.18.98-.25,1.34-2.37.67-4.66,1.32-7.36,2.09Z"/>
    <path d="M578.88,300.31c-.6-.63-.91-.95-1.2-1.25-1.55.22-3.08.43-4.88.69.26-2.64.5-5.08.72-7.38.72-.23,1.17-.37,1.87-.6,1.06,2.59,2.2,5.37,3.49,8.54Z"/>
    <path d="M568.7,289.95c.48.54.87.97,1.27,1.42-2.3,1.43-1.59,4.6-3.79,6.47-1.15-.9-2.4-1.87-3.72-2.9-.26.02-.63.06-1.51.13,2.86-1.89,5.31-3.51,7.75-5.12Z"/>
    <path d="M589.44,291.29c-1.75-.15-2.42-.21-3.16-.28-.85,1.32-1.71,2.64-2.6,4.02-1.76-1.68-3.5-3.34-5.15-4.92.18-.66.31-1.11.5-1.79,2.99.85,6.17,1.76,10.4,2.97Z"/>
    <path d="M586.2,279.87c.38,1.3.79,2.67,1.27,4.29-1.5.09-3.01.18-4.58.27-.06-1.04-.06-2-1.26-2.51-.1.37-.18.68-.22.87.39.5.69.88,1.1,1.4-.93.16-1.63.28-2.47.42-.21-.37-.47-.83-.82-1.44,2.72-1.72,5.37-3.4,8.58-5.42-.78,1.04-1.17,1.56-1.59,2.11Z"/>
    <path d="M582.53,298.13c-.56.57-.89,1.15-1.42.28.2-.18.39-.36.59-.54-.28-.64-.65-.88-1.27-.45-1.34-2.07-2.67-4.1-4.91-7.55,4.21,2.67,4.86,6.02,7,8.25Z"/>
    <path d="M573.67,278.65c-.31.14-.65.3-1.17.53-.24-2.71-.47-5.26-.71-7.91.53-.07.96-.13,1.49-.2.13,2.53.26,4.99.39,7.59Z"/>
    <path d="M579.68,287.16c.39-.63.53-.84.68-1.1,2.29.21,4.57.42,6.91.63-.05.25-.09.49-.15.82.26.08.52.16.86.27.09-.33.17-.59.26-.91h.92c-.09.45-.17.84-.27,1.34-3.04-.35-6.01-.69-9.21-1.06Z"/>
    <path d="M579.8,280.91c-.4.04-.92.1-.2.02.95-1.36,2.38-3.41,3.82-5.46.14.16.27.32.41.47.15-.37.29-.74.53-1.34.45.54.72.86,1,1.2-1.86,1.71-3.64,3.35-5.55,5.1Z"/>
    <path d="M570.09,299.29c-.35-.13-.75-.28-1.24-.47.86-2.49,1.68-4.85,2.57-7.42.38.4.66.69.97,1.03-.76,2.27-1.51,4.5-2.31,6.86Z"/>
    <path d="M567.8,281.83c-.16.31-.31.59-.52.99-2.16-1.27-4.28-2.51-6.46-3.8.27-.43.51-.8.8-1.27,2.06,1.36,4.07,2.68,6.18,4.07Z"/>
    <path d="M566.94,288.11c.09.5.14.81.19,1.11-2.39.96-4.75,1.9-7.17,2.87-.15-.39-.29-.75-.5-1.28.4.28.63.44,1.05.74-.05-.53-.07-.78-.09-1.05,2.18-.8,4.33-1.58,6.52-2.38Z"/>
    <g>
      <g>
        <circle cx="392.89" cy="289.08" r="1.43"/>
        <circle cx="396.91" cy="287.48" r="1.43"/>
        <circle cx="396.73" cy="282.97" r="1.43"/>
        <circle cx="392.51" cy="281.77" r="1.43"/>
        <circle cx="389.93" cy="285.19" r="1.43"/>
      </g>
      <g>
        <circle cx="570.73" cy="288.27" r="1.43"/>
        <circle cx="574.92" cy="289.36" r="1.43"/>
        <circle cx="577.44" cy="285.61" r="1.43"/>
        <circle cx="574.26" cy="282.15" r="1.43"/>
        <circle cx="570.28" cy="284.06" r="1.43"/>
      </g>
    </g>
    <path d="M476.14,248.44c-.65.08-2.25,1.15-4.61.11-.43-.19-.88-.45-1.35-.79.43.05.84.1,1.23.14,2.55.29,4.08.46,4.73.54Z"/>
    <path d="M476.34,248.46c-.05,0-.12-.01-.2-.02.08,0,.15,0,.2.02Z"/>
    <path d="M527.08,236.23c.06.2.12.39.17.55l.08-.06c-.08-.15-.16-.31-.25-.49ZM527.08,236.23c.06.2.12.39.17.55l.08-.06c-.08-.15-.16-.31-.25-.49ZM619.06,288.28c-3.78,2.63-7.84,1.38-11.77,1.43,3.39-.67,7.12.43,10.14-2.04.02.12.04.27.06.46.18-3.08.28-4.72.38-6.43-1.39.25-2.66.47-3.93.7-.01-.14-.03-.27-.05-.4,1.26-.32,2.53-.64,3.69-.93.54-1.49.87-3.31,1.03-5.23.29-3.43,0-7.15-.71-9.74h0s-.72-2.9-.72-2.9c-.17-4.37-1.89-7.32-5.65-8.95-10.01-4.33-20.67-6.23-31.28-8.24-.57-.11-1.15-.22-1.72-.32-1.47-.27-2.95-.54-4.43-.8-6.92-1.21-13.87-2.29-20.8-3.45-.13-.01-.26-.02-.38-.04-.4-.09-.81-.18-1.17-.27-.17-.45-.32-.85-.49-1.31-.3.11-.52.19-.75.28.15.27.25.47.48.9-2.18-.85-4.21-1.45-6.08-2.38-13.41-6.67-26.33-14.72-40.85-18.56-34.79-9.21-69.71-7-104.24,1.68-13.45,3.38-26.88,7.15-39.39,13.78-4.33,2.29-10.29,1.68-15.53,2.02-2.07.13-3.96.23-5.96,1.5,4.94-.22,9.55-.43,14.17-.63-.01.07-.03.14-.04.2,2.02.1,4.04.19,6.06.29-4.97.66-9.96.46-14.91.76-2,.12-4.74-1.15-6,1.51-2.73,5.76-4.21,11.94-5.81,18.74,5.52-5.7,8.41-12.84,14.44-18.56-2.98,4.48-5.5,8.17-7.92,11.93-1.54,2.4-2.61,5.17-5.48,6.43-3.2,1.41-4.34,3.86-3.95,7.28.2,1.79.04,3.63-.05,5.44-.41,8.27,3.12,12.16,7.46,13.14,7.48,1.69,15.1,3.09,22.74,3.7,3.75.3,8.65,4.58,11.64-1.68.08-.17.59-.14.93-.21.09.26.17.43.21.61,2.49,11.61,9.74,18.18,20.82,18.84,10.36.62,18.81-2.69,22.79-15.9.13-.44.91-.94,1.41-.96.86-.04,2.16-.29,2.37.94.35,2.03,1.7,2.44,3.36,2.48,2.47.05,4.94,0,7.41.05,25.49.42,50.98,1.16,76.47,1.17,14.65,0,29.4,2.33,44.56-.81,3.11,9.02,10.01,12.9,20.01,13.13,9.94.23,17.12-3.33,21.42-11.83,10.09,2.79,18.58.23,26.61-5.38-.35-.83-.48-1.13-.61-1.45ZM612.71,283.03c-.94.06-1.65.11-2.49.17-.17,1.54-.34,3.03-.51,4.51.2.02.39.04.59.06.21-1.38.42-2.76.63-4.13.17.02.33.05.5.07-.2,1.66-.41,3.32-.62,5.01h-3.19c-.11-3.85,2.58-7.04,5.1-5.69ZM551.21,246.2c-.15.34-.3.68-.44,1.01-5.63-.74-11.26-1.47-17.23-2.25.74-.42,1.11-.63,1.46-.83.05-.47.09-.85.13-1.27.87.13.93.47.23,1.2,4.1.52,8.01,1.02,12.41,1.58-3.69-2.94-8.08-4.11-11.79-8.61,5.88,3.54,10.56,6.36,15.23,9.17ZM512.03,241.07h-2.91l.3-2.91s-.55-1.85-1.86-.34c-1.31,1.52-1.77,2.95-1.77,2.95l-29.21-1.6-3.29-14.25s8.85-2.02,21.24,2.44c12.39,4.47,17.87,7.92,17.87,7.92,0,0-1.35,1.98-.38,5.77ZM526.68,243.61c0,.12,0,.24,0,.36-.42.04-.84.07-1.46.13,1.26.13,2.33.25,3.79.4-2.19.6-58.48-3.65-58.4-4.41,18.69,1.17,37.39,2.35,56.08,3.52ZM515.33,241.18c-.92.22-1.83.5-2.2-.49-.59-1.58-.26-3.08.91-4.61.68.36,1.3.7,2.14,1.15-.77.57-1.28.94-1.79,1.31.32.89.61,1.73.93,2.64ZM525.82,240.62c.05-.76.1-1.45.19-2.72.35,1.13.54,1.73.77,2.44,4.14-.48,8.01.64,12.75,1.37-1.47.68-2.13.99-2.79,1.3-.05-.12-.11-.24-.17-.35.52-.25,1.04-.5,2.02-.98-4.53-.38-8.61-.72-12.78-1.06ZM493.15,218.97c-8.03-.81-14.98-1.5-22.23-2.23,7.32.12,14.26.92,22.23,2.23ZM533.51,235.58c-.99.27-2.36-.27-3.86-.35.27.16.54.31.82.47-.41-.17-.79-.33-1.14-.48l-1.99,1.5s.05.09.07.14c.13-.15.26-.31.39-.46.51.29,1.07.62,1.83,1.06.26.87-.69.86-1.27,1.27-.18-.35-.33-.65-.95-1.87-.03.04-.06.07-.09.11.35,1.15.42,1.36.48,1.56-.4-.03-.76-.05-1.25-.08-.01-.08-.06-.35-.07-.48.31-.36.58-.68.85-1-.02-.06-.04-.12-.06-.19l-1.24.94c.1-.63.19-1.19.23-1.45,1.03-.83,2.08-1.06,3.08-1.05.11,0,.22,0,.33,0-20.41-11.63-40.68-17.13-62.52-16.68-.08-.61-.13-.91-.15-1.05,24.33-.96,46.4,6.51,66.53,18.09ZM393.07,302.22c-8.67-.07-16.13-8.04-16.04-17.12.09-8.9,7.39-16.1,16.24-16.03,9.71.08,16.93,7.57,16.86,17.51-.05,8.78-7.62,15.72-17.06,15.63ZM406.71,271.24c-4.25-2.84-7.49-4.43-11.51-5.1.63-.12.88-.17,1.13-.21-4.01-.37-7.88.16-12.44,2.39,5.12-3.39,9.67-4.05,14.64-2.38-.19.07-.32.12-.66.26,2.98.85,5.63,1.96,8.85,5.04ZM402.57,271.18c-5.51-3.04-10.44-3.02-15.59-1.46,2.58-2.31,11.21-1.71,15.59,1.46ZM380.49,238.58c6.76-3.6,13.25-7.11,19.79-10.51,6.68-3.47,13.48-6.83,21.01-7.94,7.42-1.1,14.89-2.05,22.38-2.47,7.49-.42,15.03-.09,22.83-.09.03.07.14.35.31.82-13.14-.26-26.05.31-38.96,1.79-4.42.51-8.5,1.61-12.39,3.16l-9.07,12.28c-.28.38-.73.61-1.2.61h-7.85s-2.95.25.68-2.36c2.92-2.11,9.3-6.14,11.66-7.62.59-.37,1.2-.71,1.83-1.01l3.84-1.86c-8,3.22-17.26,8.35-24.84,14.21,26.67.83,54.05,1.61,79.38,2.39.16.43.27.71.47,1.27-29.92-1.98-59.72-1.59-89.88-2.66ZM463.4,238.52l-31.86-.95-.89-5.3c-.11-.66.03-1.35.4-1.91.85-1.31,2.38-3.66,2.75-4.14.51-.68,2.3-.84,2.3-.84l8.48-1.07s15.57-.45,16.69-.34c1.12.11,1.18,1.07,1.18,1.07l.95,13.49ZM472.83,285.65l-38.57-2.49s-3.16-1.55,0-1.46c3.16.09,38.57,1.27,38.57,1.27v2.68ZM530.11,288.11l-56.72-2.46v-2.52s51.34,2.49,61.96,3.93c.28.04.54.14.77.3,1.57,1.17-6.01.74-6.01.74ZM552.76,257.99c-1.56-.14-3.1-.28-4.66-.42-.21-.8-.36-1.35-.55-2.05,2.05.13,4.02.25,6.09.37-.3.71-.55,1.3-.88,2.09ZM589.55,272.92c-.6-.26-1.14-.49-1.93-.83-.08-.14-.29-.53-.52-.96h-.98c-.1-.29-.2-.59-.33-.94-.45-.06-.89-.12-1.37-.18-.13-.29-.25-.57-.29-.67-1.9-.62-3.67-1.19-5.43-1.75,2.99-.91,10.26,2.67,10.85,5.32ZM573.81,302.65c-9.46-.09-16.26-7.23-16.15-16.95.1-8.56,8.2-16.23,17.04-16.11,9.17.11,16.25,7.18,16.16,16.13-.1,9.48-7.69,17.01-17.06,16.93ZM527.25,236.78l.08-.06c-.08-.15-.16-.31-.25-.49.06.2.12.39.17.55Z"/>
  </g>
  <g>
    <path d="M258.36,388.63h26.82c9.49,0,16.06,5.45,16.06,12.93,0,5.08-2.62,9.19-7.1,11.43,5.9,2.62,9.42,7.47,9.42,13.08,0,8.22-7.25,13.9-17.41,13.9h-27.8v-51.33ZM282.04,408.96c3.51,0,6.05-2.02,6.05-4.78s-2.54-4.71-6.05-4.71h-10.98v9.49h10.98ZM283.98,429.13c3.74,0,6.43-2.17,6.43-5.15s-2.69-5.16-6.43-5.16h-12.93v10.31h12.93Z"/>
    <path d="M310.43,387.74h12.7v52.23h-12.7v-52.23Z"/>
    <path d="M367.22,417.03v22.94h-12.18v-3.29c-2.69,2.69-6.73,4.18-10.69,4.18-8.22,0-14.72-5.01-14.72-12.33s7.25-12.85,16.36-12.85c2.84,0,6.05.67,9.04,1.87v-.52c0-4.11-3.14-7.1-8.44-7.1-3.66,0-6.43,1.12-9.71,2.84l-3.96-7.92c5.38-2.69,10.91-4.41,16.89-4.41,9.94,0,17.41,6.28,17.41,16.59ZM355.04,428.39v-4.11c-1.94-.75-4.63-1.27-7.25-1.27-3.44,0-6.13,2.17-6.13,5.15s2.39,4.93,5.75,4.93c3.74,0,7.1-1.79,7.62-4.71Z"/>
    <path d="M373.49,420.61c0-10.98,9.86-20.17,21.52-20.17,6.58,0,11.88,2.69,15.62,6.87l-8.37,6.95c-1.72-1.87-4.63-3.29-7.32-3.29-5.01,0-9.27,4.41-9.27,9.56s4.26,9.79,9.27,9.79c2.76,0,5.75-1.42,7.55-3.44l8.37,6.87c-3.81,4.33-9.19,7.1-15.99,7.1-11.58,0-21.37-9.26-21.37-20.25Z"/>
    <path d="M455.68,439.97h-14.35l-8.37-13.67-3.88,4.48v9.19h-12.7v-52.23h12.7v28.84l12.18-15.24h14.35l-14.27,16.89,14.35,21.74Z"/>
    <path d="M479.14,414.26c0-14.42,12.63-26.52,27.57-26.52,7.99,0,15.32,3.44,20.4,8.82l-9.34,8.29c-2.69-3.36-6.73-5.53-11.06-5.53-7.85,0-14.5,6.87-14.5,14.94s6.65,15.02,14.5,15.02c4.41,0,8.37-2.17,11.13-5.53l9.27,8.22c-5.08,5.45-12.4,8.89-20.4,8.89-14.94,0-27.57-12.18-27.57-26.6Z"/>
    <path d="M568.35,417.03v22.94h-12.18v-3.29c-2.69,2.69-6.73,4.18-10.69,4.18-8.22,0-14.72-5.01-14.72-12.33s7.25-12.85,16.36-12.85c2.84,0,6.05.67,9.04,1.87v-.52c0-4.11-3.14-7.1-8.44-7.1-3.66,0-6.43,1.12-9.71,2.84l-3.96-7.92c5.38-2.69,10.91-4.41,16.89-4.41,9.94,0,17.41,6.28,17.41,16.59ZM556.17,428.39v-4.11c-1.94-.75-4.63-1.27-7.25-1.27-3.44,0-6.13,2.17-6.13,5.15s2.39,4.93,5.75,4.93c3.74,0,7.1-1.79,7.62-4.71Z"/>
    <path d="M601.9,400.44v10.54c-7.85,0-12.63,4.48-12.63,11.58l-.07-.15v17.56h-12.63v-38.63h12.63v7.17c2.54-5.01,7.1-8.07,12.7-8.07Z"/>
    <path d="M625.05,432.27l7.17-8.59c5.01,4.11,10.61,6.5,16.89,6.5,4.78,0,7.25-1.94,7.25-4.71,0-3.06-2.39-3.74-9.86-5.53-10.98-2.47-19.13-5.45-19.13-15.77s7.92-16.44,19.65-16.44c8.59,0,15.32,2.47,20.77,7.02l-6.5,9.12c-4.71-3.59-9.86-5.45-14.65-5.45-4.11,0-6.43,1.94-6.43,4.48,0,3.14,2.47,4.19,10.09,5.83,11.51,2.47,18.9,5.75,18.9,15.39,0,10.31-7.85,16.74-20.55,16.74-9.12,0-17.41-2.99-23.61-8.59Z"/>
    <path d="M703.06,427.34l7.47,7.55c-3.44,3.51-10.09,5.98-15.84,5.98-11.96,0-20.77-8.44-20.77-20.32s8.52-20.1,20.17-20.1c12.25,0,19.43,8.97,19.43,23.69h-27.57c1.2,3.88,4.26,6.5,8.37,6.5,2.99,0,6.43-1.27,8.74-3.29ZM686.1,416.43h15.69c-1.05-3.51-3.66-5.83-7.47-5.83s-6.87,2.24-8.22,5.83Z"/>
    <path d="M745.42,400.44v10.54c-7.85,0-12.63,4.48-12.63,11.58l-.07-.15v17.56h-12.63v-38.63h12.63v7.17c2.54-5.01,7.1-8.07,12.7-8.07Z"/>
    <path d="M747.44,401.34h13.08l9.56,24.14,9.34-24.14h13.08l-16.59,38.63h-11.73l-16.74-38.63Z"/>
    <path d="M797.27,389.9c0-3.51,2.99-6.58,6.72-6.58s6.58,3.06,6.58,6.58-2.91,6.72-6.58,6.72-6.72-3.06-6.72-6.72ZM797.57,401.34h12.63v38.63h-12.63v-38.63Z"/>
    <path d="M817,420.61c0-10.98,9.86-20.17,21.52-20.17,6.58,0,11.88,2.69,15.62,6.87l-8.37,6.95c-1.72-1.87-4.63-3.29-7.32-3.29-5.01,0-9.27,4.41-9.27,9.56s4.26,9.79,9.27,9.79c2.76,0,5.75-1.42,7.55-3.44l8.37,6.87c-3.81,4.33-9.19,7.1-15.99,7.1-11.58,0-21.37-9.26-21.37-20.25Z"/>
    <path d="M887.23,427.34l7.47,7.55c-3.44,3.51-10.09,5.98-15.84,5.98-11.96,0-20.77-8.44-20.77-20.32s8.52-20.1,20.17-20.1c12.25,0,19.43,8.97,19.43,23.69h-27.57c1.2,3.88,4.26,6.5,8.37,6.5,2.99,0,6.43-1.27,8.74-3.29ZM870.27,416.43h15.69c-1.05-3.51-3.66-5.83-7.47-5.83s-6.87,2.24-8.22,5.83Z"/>
  </g>
</svg>